solid examplar
	 facet normal	0	1	0
		 outer loop
			 vertex	-4	0.8	-4.89858719658941E-16
			 vertex	-3.99960128507271	0.8	0.0564761936102869
			 vertex	-3.99960128507271	0.8	-0.0564761936102887
		 endloop
	 facet normal	0	1	0
		 outer loop
			 vertex	-3.99960128507271	0.8	-0.0564761936102887
			 vertex	-3.99960128507271	0.8	0.0564761936102869
			 vertex	-3.99840521977765	0.8	-0.112941128269861
		 endloop
	 facet normal	0	1	0
		 outer loop
			 vertex	-3.99840521977765	0.8	-0.112941128269861
			 vertex	-3.99960128507271	0.8	0.0564761936102869
			 vertex	-3.99840521977765	0.8	0.112941128269862
		 endloop
	 facet normal	0	1	0
		 outer loop
			 vertex	-3.99840521977765	0.8	-0.112941128269861
			 vertex	-3.99840521977765	0.8	0.112941128269862
			 vertex	-3.99641204255935	0.8	-0.169383547272562
		 endloop
	 facet normal	0	1	0
		 outer loop
			 vertex	-3.99641204255935	0.8	-0.169383547272562
			 vertex	-3.99840521977765	0.8	0.112941128269862
			 vertex	-3.99641204255935	0.8	0.169383547272562
		 endloop
	 facet normal	0	1	0
		 outer loop
			 vertex	-3.99641204255935	0.8	-0.169383547272562
			 vertex	-3.99641204255935	0.8	0.169383547272562
			 vertex	-3.99362215077257	0.8	-0.225792198400895
		 endloop
	 facet normal	0	1	0
		 outer loop
			 vertex	-3.99362215077257	0.8	-0.225792198400895
			 vertex	-3.99641204255935	0.8	0.169383547272562
			 vertex	-3.99362215077257	0.8	0.225792198400897
		 endloop
	 facet normal	0	1	0
		 outer loop
			 vertex	-3.99362215077257	0.8	-0.225792198400895
			 vertex	-3.99362215077257	0.8	0.225792198400897
			 vertex	-3.99003610060306	0.8	-0.282155836169245
		 endloop
	 facet normal	0	1	0
		 outer loop
			 vertex	-3.99003610060306	0.8	-0.282155836169245
			 vertex	-3.99362215077257	0.8	0.225792198400897
			 vertex	-3.99003610060306	0.8	0.282155836169245
		 endloop
	 facet normal	0	1	0
		 outer loop
			 vertex	-3.99003610060306	0.8	-0.282155836169245
			 vertex	-3.99003610060306	0.8	0.282155836169245
			 vertex	-3.98565460695668	0.8	-0.338463224065742
		 endloop
	 facet normal	0	1	0
		 outer loop
			 vertex	-3.98565460695668	0.8	-0.338463224065742
			 vertex	-3.99003610060306	0.8	0.282155836169245
			 vertex	-3.98565460695668	0.8	0.338463224065742
		 endloop
	 facet normal	0	1	0
		 outer loop
			 vertex	-3.98565460695668	0.8	-0.338463224065742
			 vertex	-3.98565460695668	0.8	0.338463224065742
			 vertex	-3.98047854331691	0.8	-0.394703136792355
		 endloop
	 facet normal	0	1	0
		 outer loop
			 vertex	-3.98047854331691	0.8	-0.394703136792355
			 vertex	-3.98565460695668	0.8	0.338463224065742
			 vertex	-3.98047854331691	0.8	0.394703136792356
		 endloop
	 facet normal	0	1	0
		 outer loop
			 vertex	-3.98047854331691	0.8	-0.394703136792355
			 vertex	-3.98047854331691	0.8	0.394703136792356
			 vertex	-3.97450894157065	0.8	-0.450864362502724
		 endloop
	 facet normal	0	1	0
		 outer loop
			 vertex	-3.97450894157065	0.8	-0.450864362502724
			 vertex	-3.98047854331691	0.8	0.394703136792356
			 vertex	-3.97450894157065	0.8	0.450864362502724
		 endloop
	 facet normal	0	1	0
		 outer loop
			 vertex	-3.97450894157065	0.8	-0.450864362502724
			 vertex	-3.97450894157065	0.8	0.450864362502724
			 vertex	-3.96774699180256	0.8	-0.506935705037336
		 endloop
	 facet normal	0	1	0
		 outer loop
			 vertex	-3.96774699180256	0.8	-0.506935705037336
			 vertex	-3.97450894157065	0.8	0.450864362502724
			 vertex	-3.96774699180256	0.8	0.506935705037336
		 endloop
	 facet normal	0	1	0
		 outer loop
			 vertex	-3.96774699180256	0.8	-0.506935705037336
			 vertex	-3.96774699180256	0.8	0.506935705037336
			 vertex	-3.96019404205782	0.8	-0.562905986155562
		 endloop
	 facet normal	0	1	0
		 outer loop
			 vertex	-3.96019404205782	0.8	-0.562905986155562
			 vertex	-3.96774699180256	0.8	0.506935705037336
			 vertex	-3.96019404205782	0.8	0.562905986155564
		 endloop
	 facet normal	0	1	0
		 outer loop
			 vertex	-3.96019404205782	0.8	-0.562905986155562
			 vertex	-3.96019404205782	0.8	0.562905986155564
			 vertex	-3.95185159807331	0.8	-0.618764047764119
		 endloop
	 facet normal	0	1	0
		 outer loop
			 vertex	-3.95185159807331	0.8	-0.618764047764119
			 vertex	-3.96019404205782	0.8	0.562905986155564
			 vertex	-3.95185159807331	0.8	0.618764047764119
		 endloop
	 facet normal	0	1	0
		 outer loop
			 vertex	-3.95185159807331	0.8	-0.618764047764119
			 vertex	-3.95185159807331	0.8	0.618764047764119
			 vertex	-3.94272132297751	0.8	-0.67449875414152
		 endloop
	 facet normal	0	1	0
		 outer loop
			 vertex	-3.94272132297751	0.8	-0.67449875414152
			 vertex	-3.95185159807331	0.8	0.618764047764119
			 vertex	-3.94272132297751	0.8	0.674498754141518
		 endloop
	 facet normal	0	1	0
		 outer loop
			 vertex	-3.94272132297751	0.8	-0.67449875414152
			 vertex	-3.94272132297751	0.8	0.674498754141518
			 vertex	-3.93280503695891	0.8	-0.730098994158062
		 endloop
	 facet normal	0	1	0
		 outer loop
			 vertex	-3.93280503695891	0.8	-0.730098994158062
			 vertex	-3.94272132297751	0.8	0.674498754141518
			 vertex	-3.93280503695891	0.8	0.730098994158064
		 endloop
	 facet normal	0	1	0
		 outer loop
			 vertex	-3.93280503695891	0.8	-0.730098994158062
			 vertex	-3.93280503695891	0.8	0.730098994158064
			 vertex	-3.92210471690314	0.8	-0.785553683490922
		 endloop
	 facet normal	0	1	0
		 outer loop
			 vertex	-3.92210471690314	0.8	-0.785553683490922
			 vertex	-3.93280503695891	0.8	0.730098994158064
			 vertex	-3.92210471690314	0.8	0.785553683490922
		 endloop
	 facet normal	0	1	0
		 outer loop
			 vertex	-3.92210471690314	0.8	-0.785553683490922
			 vertex	-3.92210471690314	0.8	0.785553683490922
			 vertex	-3.91062249599886	0.8	-0.840851766833885
		 endloop
	 facet normal	0	1	0
		 outer loop
			 vertex	-3.91062249599886	0.8	-0.840851766833885
			 vertex	-3.92210471690314	0.8	0.785553683490922
			 vertex	-3.91062249599886	0.8	0.840851766833884
		 endloop
	 facet normal	0	1	0
		 outer loop
			 vertex	-3.91062249599886	0.8	-0.840851766833885
			 vertex	-3.91062249599886	0.8	0.840851766833884
			 vertex	-3.89836066331251	0.8	-0.895982220101312
		 endloop
	 facet normal	0	1	0
		 outer loop
			 vertex	-3.89836066331251	0.8	-0.895982220101312
			 vertex	-3.91062249599886	0.8	0.840851766833884
			 vertex	-3.89836066331251	0.8	0.895982220101312
		 endloop
	 facet normal	0	1	0
		 outer loop
			 vertex	-3.89836066331251	0.8	-0.895982220101312
			 vertex	-3.89836066331251	0.8	0.895982220101312
			 vertex	-3.88532166333195	0.8	-0.950934052625868
		 endloop
	 facet normal	0	1	0
		 outer loop
			 vertex	-3.88532166333195	0.8	-0.950934052625868
			 vertex	-3.89836066331251	0.8	0.895982220101312
			 vertex	-3.88532166333195	0.8	0.950934052625868
		 endloop
	 facet normal	0	1	0
		 outer loop
			 vertex	-3.88532166333195	0.8	-0.950934052625868
			 vertex	-3.88532166333195	0.8	0.950934052625868
			 vertex	-3.87150809547915	0.8	-1.0056963093496
		 endloop
	 facet normal	0	1	0
		 outer loop
			 vertex	-3.87150809547915	0.8	-1.0056963093496
			 vertex	-3.88532166333195	0.8	0.950934052625868
			 vertex	-3.87150809547915	0.8	1.0056963093496
		 endloop
	 facet normal	0	1	0
		 outer loop
			 vertex	-3.87150809547915	0.8	-1.0056963093496
			 vertex	-3.87150809547915	0.8	1.0056963093496
			 vertex	-3.85692271359196	0.8	-1.06025807300791
		 endloop
	 facet normal	0	1	0
		 outer loop
			 vertex	-3.85692271359196	0.8	-1.06025807300791
			 vertex	-3.87150809547915	0.8	1.0056963093496
			 vertex	-3.85692271359196	0.8	1.06025807300791
		 endloop
	 facet normal	0	1	0
		 outer loop
			 vertex	-3.85692271359196	0.8	-1.06025807300791
			 vertex	-3.85692271359196	0.8	1.06025807300791
			 vertex	-3.84156842537512	0.8	-1.11460846630597
		 endloop
	 facet normal	0	1	0
		 outer loop
			 vertex	-3.84156842537512	0.8	-1.11460846630597
			 vertex	-3.85692271359196	0.8	1.06025807300791
			 vertex	-3.84156842537512	0.8	1.11460846630597
		 endloop
	 facet normal	0	1	0
		 outer loop
			 vertex	-3.84156842537512	0.8	-1.11460846630597
			 vertex	-3.84156842537512	0.8	1.11460846630597
			 vertex	-3.82544829182058	0.8	-1.16873665408723
		 endloop
	 facet normal	0	1	0
		 outer loop
			 vertex	-3.82544829182058	0.8	-1.16873665408723
			 vertex	-3.84156842537512	0.8	1.11460846630597
			 vertex	-3.82544829182058	0.8	1.16873665408723
		 endloop
	 facet normal	0	1	0
		 outer loop
			 vertex	-3.82544829182058	0.8	-1.16873665408723
			 vertex	-3.82544829182058	0.8	1.16873665408723
			 vertex	-3.80856552659728	0.8	-1.22263184549347
		 endloop
	 facet normal	0	1	0
		 outer loop
			 vertex	-3.80856552659728	0.8	-1.22263184549347
			 vertex	-3.82544829182058	0.8	1.16873665408723
			 vertex	-3.80856552659728	0.8	1.22263184549347
		 endloop
	 facet normal	0	1	0
		 outer loop
			 vertex	-3.80856552659728	0.8	-1.22263184549347
			 vertex	-3.80856552659728	0.8	1.22263184549347
			 vertex	-3.79092349541048	0.8	-1.27628329611602
		 endloop
	 facet normal	0	1	0
		 outer loop
			 vertex	-3.79092349541048	0.8	-1.27628329611602
			 vertex	-3.80856552659728	0.8	1.22263184549347
			 vertex	-3.79092349541048	0.8	1.27628329611602
		 endloop
	 facet normal	0	1	0
		 outer loop
			 vertex	-3.79092349541048	0.8	-1.27628329611602
			 vertex	-3.79092349541048	0.8	1.27628329611602
			 vertex	-3.77252571533077	0.8	-1.32968031013777
		 endloop
	 facet normal	0	1	0
		 outer loop
			 vertex	-3.77252571533077	0.8	-1.32968031013777
			 vertex	-3.79092349541048	0.8	1.27628329611602
			 vertex	-3.77252571533077	0.8	1.32968031013777
		 endloop
	 facet normal	0	1	0
		 outer loop
			 vertex	-3.77252571533077	0.8	-1.32968031013777
			 vertex	-3.77252571533077	0.8	1.32968031013777
			 vertex	-3.75337585409292	0.8	-1.38281224246543
		 endloop
	 facet normal	0	1	0
		 outer loop
			 vertex	-3.75337585409292	0.8	-1.38281224246543
			 vertex	-3.77252571533077	0.8	1.32968031013777
			 vertex	-3.75337585409292	0.8	1.38281224246543
		 endloop
	 facet normal	0	1	0
		 outer loop
			 vertex	-3.75337585409292	0.8	-1.38281224246543
			 vertex	-3.75337585409292	0.8	1.38281224246543
			 vertex	-3.73347772936469	0.8	-1.43566850085173
		 endloop
	 facet normal	0	1	0
		 outer loop
			 vertex	-3.73347772936469	0.8	-1.43566850085173
			 vertex	-3.75337585409292	0.8	1.38281224246543
			 vertex	-3.73347772936469	0.8	1.43566850085173
		 endloop
	 facet normal	0	1	0
		 outer loop
			 vertex	-3.73347772936469	0.8	-1.43566850085173
			 vertex	-3.73347772936469	0.8	1.43566850085173
			 vertex	-3.71283530798577	0.8	-1.48823854800707
		 endloop
	 facet normal	0	1	0
		 outer loop
			 vertex	-3.71283530798577	0.8	-1.48823854800707
			 vertex	-3.73347772936469	0.8	1.43566850085173
			 vertex	-3.71283530798577	0.8	1.48823854800708
		 endloop
	 facet normal	0	1	0
		 outer loop
			 vertex	-3.71283530798577	0.8	-1.48823854800707
			 vertex	-3.71283530798577	0.8	1.48823854800708
			 vertex	-3.69145270517692	0.8	-1.54051190370019
		 endloop
	 facet normal	0	1	0
		 outer loop
			 vertex	-3.69145270517692	0.8	-1.54051190370019
			 vertex	-3.71283530798577	0.8	1.48823854800708
			 vertex	-3.69145270517692	0.8	1.54051190370019
		 endloop
	 facet normal	0	1	0
		 outer loop
			 vertex	-3.69145270517692	0.8	-1.54051190370019
			 vertex	-3.69145270517692	0.8	1.54051190370019
			 vertex	-3.66933418371961	0.8	-1.59247814684747
		 endloop
	 facet normal	0	1	0
		 outer loop
			 vertex	-3.66933418371961	0.8	-1.59247814684747
			 vertex	-3.69145270517692	0.8	1.54051190370019
			 vertex	-3.66933418371961	0.8	1.59247814684747
		 endloop
	 facet normal	0	1	0
		 outer loop
			 vertex	-3.66933418371961	0.8	-1.59247814684747
			 vertex	-3.66933418371961	0.8	1.59247814684747
			 vertex	-3.64648415310617	0.8	-1.64412691759049
		 endloop
	 facet normal	0	1	0
		 outer loop
			 vertex	-3.64648415310617	0.8	-1.64412691759049
			 vertex	-3.66933418371961	0.8	1.59247814684747
			 vertex	-3.64648415310617	0.8	1.64412691759049
		 endloop
	 facet normal	0	1	0
		 outer loop
			 vertex	-3.64648415310617	0.8	-1.64412691759049
			 vertex	-3.64648415310617	0.8	1.64412691759049
			 vertex	-3.62290716866075	0.8	-1.69544791936131
		 endloop
	 facet normal	0	1	0
		 outer loop
			 vertex	-3.62290716866075	0.8	-1.69544791936131
			 vertex	-3.64648415310617	0.8	1.64412691759049
			 vertex	-3.62290716866075	0.8	1.69544791936131
		 endloop
	 facet normal	0	1	0
		 outer loop
			 vertex	-3.62290716866075	0.8	-1.69544791936131
			 vertex	-3.62290716866075	0.8	1.69544791936131
			 vertex	-3.59860793063116	0.8	-1.74643092093518
		 endloop
	 facet normal	0	1	0
		 outer loop
			 vertex	-3.59860793063116	0.8	-1.74643092093518
			 vertex	-3.62290716866075	0.8	1.69544791936131
			 vertex	-3.59860793063116	0.8	1.74643092093518
		 endloop
	 facet normal	0	1	0
		 outer loop
			 vertex	-3.59860793063116	0.8	-1.74643092093518
			 vertex	-3.59860793063116	0.8	1.74643092093518
			 vertex	-3.57359128325188	0.8	-1.79706575847023
		 endloop
	 facet normal	0	1	0
		 outer loop
			 vertex	-3.57359128325188	0.8	-1.79706575847023
			 vertex	-3.59860793063116	0.8	1.74643092093518
			 vertex	-3.57359128325188	0.8	1.79706575847023
		 endloop
	 facet normal	0	1	0
		 outer loop
			 vertex	-3.57359128325188	0.8	-1.79706575847023
			 vertex	-3.57359128325188	0.8	1.79706575847023
			 vertex	-3.54786221377827	0.8	-1.84734233753366
		 endloop
	 facet normal	0	1	0
		 outer loop
			 vertex	-3.54786221377827	0.8	-1.84734233753366
			 vertex	-3.57359128325188	0.8	1.79706575847023
			 vertex	-3.54786221377827	0.8	1.84734233753366
		 endloop
	 facet normal	0	1	0
		 outer loop
			 vertex	-3.54786221377827	0.8	-1.84734233753366
			 vertex	-3.54786221377827	0.8	1.84734233753366
			 vertex	-3.52142585149237	0.8	-1.89725063511421
		 endloop
	 facet normal	0	1	0
		 outer loop
			 vertex	-3.52142585149237	0.8	-1.89725063511421
			 vertex	-3.54786221377827	0.8	1.84734233753366
			 vertex	-3.52142585149236	0.8	1.89725063511421
		 endloop
	 facet normal	0	1	0
		 outer loop
			 vertex	-3.52142585149237	0.8	-1.89725063511421
			 vertex	-3.52142585149236	0.8	1.89725063511421
			 vertex	-3.4942874666803	0.8	-1.94678070162024
		 endloop
	 facet normal	0	1	0
		 outer loop
			 vertex	-3.4942874666803	0.8	-1.94678070162024
			 vertex	-3.52142585149236	0.8	1.89725063511421
			 vertex	-3.4942874666803	0.8	1.94678070162024
		 endloop
	 facet normal	0	1	0
		 outer loop
			 vertex	-3.4942874666803	0.8	-1.94678070162024
			 vertex	-3.4942874666803	0.8	1.94678070162024
			 vertex	-3.46645246958163	0.8	-1.99592266286333
		 endloop
	 facet normal	0	1	0
		 outer loop
			 vertex	-3.46645246958163	0.8	-1.99592266286333
			 vertex	-3.4942874666803	0.8	1.94678070162024
			 vertex	-3.46645246958163	0.8	1.99592266286333
		 endloop
	 facet normal	0	1	0
		 outer loop
			 vertex	-3.46645246958163	0.8	-1.99592266286333
			 vertex	-3.46645246958163	0.8	1.99592266286333
			 vertex	-3.43792640931078	0.8	-2.04466672202672
		 endloop
	 facet normal	0	1	0
		 outer loop
			 vertex	-3.43792640931078	0.8	-2.04466672202672
			 vertex	-3.46645246958163	0.8	1.99592266286333
			 vertex	-3.43792640931078	0.8	2.04466672202672
		 endloop
	 facet normal	0	1	0
		 outer loop
			 vertex	-3.43792640931078	0.8	-2.04466672202672
			 vertex	-3.43792640931078	0.8	2.04466672202672
			 vertex	-3.40871497275078	0.8	-2.09300316161841
		 endloop
	 facet normal	0	1	0
		 outer loop
			 vertex	-3.40871497275078	0.8	-2.09300316161841
			 vertex	-3.43792640931078	0.8	2.04466672202672
			 vertex	-3.40871497275078	0.8	2.09300316161841
		 endloop
	 facet normal	0	1	0
		 outer loop
			 vertex	-3.40871497275078	0.8	-2.09300316161841
			 vertex	-3.40871497275078	0.8	2.09300316161841
			 vertex	-3.37882398341953	0.8	-2.1409223454084
		 endloop
	 facet normal	0	1	0
		 outer loop
			 vertex	-3.37882398341953	0.8	-2.1409223454084
			 vertex	-3.40871497275078	0.8	2.09300316161841
			 vertex	-3.37882398341953	0.8	2.1409223454084
		 endloop
	 facet normal	0	1	0
		 outer loop
			 vertex	-3.37882398341953	0.8	-2.1409223454084
			 vertex	-3.37882398341953	0.8	2.1409223454084
			 vertex	-3.34825940030884	0.8	-2.18841472034975
		 endloop
	 facet normal	0	1	0
		 outer loop
			 vertex	-3.34825940030884	0.8	-2.18841472034975
			 vertex	-3.37882398341953	0.8	2.1409223454084
			 vertex	-3.34825940030884	0.8	2.18841472034975
		 endloop
	 facet normal	0	1	0
		 outer loop
			 vertex	-3.34825940030884	0.8	-2.18841472034975
			 vertex	-3.34825940030884	0.8	2.18841472034975
			 vertex	-3.31702731669649	0.8	-2.23547081848305
		 endloop
	 facet normal	0	1	0
		 outer loop
			 vertex	-3.31702731669649	0.8	-2.23547081848305
			 vertex	-3.34825940030884	0.8	2.18841472034975
			 vertex	-3.31702731669649	0.8	2.23547081848305
		 endloop
	 facet normal	0	1	0
		 outer loop
			 vertex	-3.31702731669649	0.8	-2.23547081848305
			 vertex	-3.31702731669649	0.8	2.23547081848305
			 vertex	-3.28513395893144	0.8	-2.28208125882393
		 endloop
	 facet normal	0	1	0
		 outer loop
			 vertex	-3.28513395893144	0.8	-2.28208125882393
			 vertex	-3.31702731669649	0.8	2.23547081848305
			 vertex	-3.28513395893144	0.8	2.28208125882393
		 endloop
	 facet normal	0	1	0
		 outer loop
			 vertex	-3.28513395893144	0.8	-2.28208125882393
			 vertex	-3.28513395893144	0.8	2.28208125882393
			 vertex	-3.25258568519261	0.8	-2.32823674923322
		 endloop
	 facet normal	0	1	0
		 outer loop
			 vertex	-3.25258568519261	0.8	-2.32823674923322
			 vertex	-3.28513395893144	0.8	2.28208125882393
			 vertex	-3.25258568519261	0.8	2.32823674923322
		 endloop
	 facet normal	0	1	0
		 outer loop
			 vertex	-3.25258568519261	0.8	-2.32823674923322
			 vertex	-3.25258568519261	0.8	2.32823674923322
			 vertex	-3.2193889842213	0.8	-2.37392808826942
		 endloop
	 facet normal	0	1	0
		 outer loop
			 vertex	-3.2193889842213	0.8	-2.37392808826942
			 vertex	-3.25258568519261	0.8	2.32823674923322
			 vertex	-3.2193889842213	0.8	2.37392808826942
		 endloop
	 facet normal	0	1	0
		 outer loop
			 vertex	-3.2193889842213	0.8	-2.37392808826942
			 vertex	-3.2193889842213	0.8	2.37392808826942
			 vertex	-3.18555047402761	0.8	-2.41914616702308
		 endloop
	 facet normal	0	1	0
		 outer loop
			 vertex	-3.18555047402761	0.8	-2.41914616702308
			 vertex	-3.2193889842213	0.8	2.37392808826942
			 vertex	-3.18555047402761	0.8	2.41914616702308
		 endloop
	 facet normal	0	1	0
		 outer loop
			 vertex	-3.18555047402761	0.8	-2.41914616702308
			 vertex	-3.18555047402761	0.8	2.41914616702308
			 vertex	-3.15107690057111	0.8	-2.46388197093269
		 endloop
	 facet normal	0	1	0
		 outer loop
			 vertex	-3.15107690057111	0.8	-2.46388197093269
			 vertex	-3.18555047402761	0.8	2.41914616702308
			 vertex	-3.15107690057111	0.8	2.46388197093269
		 endloop
	 facet normal	0	1	0
		 outer loop
			 vertex	-3.15107690057111	0.8	-2.46388197093269
			 vertex	-3.15107690057111	0.8	2.46388197093269
			 vertex	-3.11597513641597	0.8	-2.50812658158186
		 endloop
	 facet normal	0	1	0
		 outer loop
			 vertex	-3.11597513641597	0.8	-2.50812658158186
			 vertex	-3.15107690057111	0.8	2.46388197093269
			 vertex	-3.11597513641597	0.8	2.50812658158186
		 endloop
	 facet normal	0	1	0
		 outer loop
			 vertex	-3.11597513641597	0.8	-2.50812658158186
			 vertex	-3.11597513641597	0.8	2.50812658158186
			 vertex	-3.08025217936085	0.8	-2.55187117847722
		 endloop
	 facet normal	0	1	0
		 outer loop
			 vertex	-3.08025217936085	0.8	-2.55187117847722
			 vertex	-3.11597513641597	0.8	2.50812658158186
			 vertex	-3.08025217936085	0.8	2.55187117847723
		 endloop
	 facet normal	0	1	0
		 outer loop
			 vertex	-3.08025217936085	0.8	-2.55187117847722
			 vertex	-3.08025217936085	0.8	2.55187117847723
			 vertex	-3.04391515104387	0.8	-2.5951070408069
		 endloop
	 facet normal	0	1	0
		 outer loop
			 vertex	-3.04391515104387	0.8	-2.5951070408069
			 vertex	-3.08025217936085	0.8	2.55187117847723
			 vertex	-3.04391515104387	0.8	2.5951070408069
		 endloop
	 facet normal	0	1	0
		 outer loop
			 vertex	-3.04391515104387	0.8	-2.5951070408069
			 vertex	-3.04391515104387	0.8	2.5951070408069
			 vertex	-3.00697129552283	0.8	-2.63782554917905
		 endloop
	 facet normal	0	1	0
		 outer loop
			 vertex	-3.00697129552283	0.8	-2.63782554917905
			 vertex	-3.04391515104387	0.8	2.5951070408069
			 vertex	-3.00697129552283	0.8	2.63782554917904
		 endloop
	 facet normal	0	1	0
		 outer loop
			 vertex	-3.00697129552283	0.8	-2.63782554917905
			 vertex	-3.00697129552283	0.8	2.63782554917904
			 vertex	-2.96942797783107	0.8	-2.68001818734017
		 endloop
	 facet normal	0	1	0
		 outer loop
			 vertex	-2.96942797783107	0.8	-2.68001818734017
			 vertex	-3.00697129552283	0.8	2.63782554917904
			 vertex	-2.96942797783107	0.8	2.68001818734017
		 endloop
	 facet normal	0	1	0
		 outer loop
			 vertex	-2.96942797783107	0.8	-2.68001818734017
			 vertex	-2.96942797783107	0.8	2.68001818734017
			 vertex	-2.93129268250918	0.8	-2.72167654387294
		 endloop
	 facet normal	0	1	0
		 outer loop
			 vertex	-2.93129268250918	0.8	-2.72167654387294
			 vertex	-2.96942797783107	0.8	2.68001818734017
			 vertex	-2.93129268250918	0.8	2.72167654387294
		 endloop
	 facet normal	0	1	0
		 outer loop
			 vertex	-2.93129268250918	0.8	-2.72167654387294
			 vertex	-2.93129268250918	0.8	2.72167654387294
			 vertex	-2.8925730121129	0.8	-2.76279231387307
		 endloop
	 facet normal	0	1	0
		 outer loop
			 vertex	-2.8925730121129	0.8	-2.76279231387307
			 vertex	-2.93129268250918	0.8	2.72167654387294
			 vertex	-2.8925730121129	0.8	2.76279231387307
		 endloop
	 facet normal	0	1	0
		 outer loop
			 vertex	-2.8925730121129	0.8	-2.76279231387307
			 vertex	-2.8925730121129	0.8	2.76279231387307
			 vertex	-2.85327668569752	0.8	-2.80335730060493
		 endloop
	 facet normal	0	1	0
		 outer loop
			 vertex	-2.85327668569752	0.8	-2.80335730060493
			 vertex	-2.8925730121129	0.8	2.76279231387307
			 vertex	-2.85327668569752	0.8	2.80335730060493
		 endloop
	 facet normal	0	1	0
		 outer loop
			 vertex	-2.85327668569752	0.8	-2.80335730060493
			 vertex	-2.85327668569752	0.8	2.80335730060493
			 vertex	-2.81341153727901	0.8	-2.84336341713566
		 endloop
	 facet normal	0	1	0
		 outer loop
			 vertex	-2.81341153727901	0.8	-2.84336341713566
			 vertex	-2.85327668569752	0.8	2.80335730060493
			 vertex	-2.81341153727901	0.8	2.84336341713566
		 endloop
	 facet normal	0	1	0
		 outer loop
			 vertex	-2.81341153727901	0.8	-2.84336341713566
			 vertex	-2.81341153727901	0.8	2.84336341713566
			 vertex	-2.77298551427224	0.8	-2.88280268794733
		 endloop
	 facet normal	0	1	0
		 outer loop
			 vertex	-2.77298551427224	0.8	-2.88280268794733
			 vertex	-2.81341153727901	0.8	2.84336341713566
			 vertex	-2.77298551427224	0.8	2.88280268794733
		 endloop
	 facet normal	0	1	0
		 outer loop
			 vertex	-2.77298551427224	0.8	-2.88280268794733
			 vertex	-2.77298551427224	0.8	2.88280268794733
			 vertex	-2.73200667590662	0.8	-2.92166725052694
		 endloop
	 facet normal	0	1	0
		 outer loop
			 vertex	-2.73200667590662	0.8	-2.92166725052694
			 vertex	-2.77298551427224	0.8	2.88280268794733
			 vertex	-2.73200667590662	0.8	2.92166725052694
		 endloop
	 facet normal	0	1	0
		 outer loop
			 vertex	-2.73200667590662	0.8	-2.92166725052694
			 vertex	-2.73200667590662	0.8	2.92166725052694
			 vertex	-2.69048319161944	0.8	-2.95994935693388
		 endloop
	 facet normal	0	1	0
		 outer loop
			 vertex	-2.69048319161944	0.8	-2.95994935693388
			 vertex	-2.73200667590662	0.8	2.92166725052694
			 vertex	-2.69048319161944	0.8	2.95994935693388
		 endloop
	 facet normal	0	1	0
		 outer loop
			 vertex	-2.69048319161944	0.8	-2.95994935693388
			 vertex	-2.69048319161944	0.8	2.95994935693388
			 vertex	-2.6484233394272	0.8	-2.9976413753445
		 endloop
	 facet normal	0	1	0
		 outer loop
			 vertex	-2.6484233394272	0.8	-2.9976413753445
			 vertex	-2.69048319161944	0.8	2.95994935693388
			 vertex	-2.6484233394272	0.8	2.9976413753445
		 endloop
	 facet normal	0	1	0
		 outer loop
			 vertex	-2.6484233394272	0.8	-2.9976413753445
			 vertex	-2.6484233394272	0.8	2.9976413753445
			 vertex	-2.60583550427536	0.8	-3.03473579157362
		 endloop
	 facet normal	0	1	0
		 outer loop
			 vertex	-2.60583550427536	0.8	-3.03473579157362
			 vertex	-2.6484233394272	0.8	2.9976413753445
			 vertex	-2.60583550427536	0.8	3.03473579157362
		 endloop
	 facet normal	0	1	0
		 outer loop
			 vertex	-2.60583550427536	0.8	-3.03473579157362
			 vertex	-2.60583550427536	0.8	3.03473579157362
			 vertex	-2.56272817636671	0.8	-3.07122521057251
		 endloop
	 facet normal	0	1	0
		 outer loop
			 vertex	-2.56272817636671	0.8	-3.07122521057251
			 vertex	-2.60583550427536	0.8	3.03473579157362
			 vertex	-2.56272817636671	0.8	3.07122521057251
		 endloop
	 facet normal	0	1	0
		 outer loop
			 vertex	-2.56272817636671	0.8	-3.07122521057251
			 vertex	-2.56272817636671	0.8	3.07122521057251
			 vertex	-2.51910994946881	0.8	-3.10710235790314
		 endloop
	 facet normal	0	1	0
		 outer loop
			 vertex	-2.51910994946881	0.8	-3.10710235790314
			 vertex	-2.56272817636671	0.8	3.07122521057251
			 vertex	-2.51910994946881	0.8	3.10710235790314
		 endloop
	 facet normal	0	1	0
		 outer loop
			 vertex	-2.51910994946881	0.8	-3.10710235790314
			 vertex	-2.51910994946881	0.8	3.10710235790314
			 vertex	-2.47498951920075	0.8	-3.14236008118841
		 endloop
	 facet normal	0	1	0
		 outer loop
			 vertex	-2.47498951920075	0.8	-3.14236008118841
			 vertex	-2.51910994946881	0.8	3.10710235790314
			 vertex	-2.47498951920075	0.8	3.14236008118841
		 endloop
	 facet normal	0	1	0
		 outer loop
			 vertex	-2.47498951920075	0.8	-3.14236008118841
			 vertex	-2.47498951920075	0.8	3.14236008118841
			 vertex	-2.4303756812996	0.8	-3.17699135153804
		 endloop
	 facet normal	0	1	0
		 outer loop
			 vertex	-2.4303756812996	0.8	-3.17699135153804
			 vertex	-2.47498951920075	0.8	3.14236008118841
			 vertex	-2.4303756812996	0.8	3.17699135153804
		 endloop
	 facet normal	0	1	0
		 outer loop
			 vertex	-2.4303756812996	0.8	-3.17699135153804
			 vertex	-2.4303756812996	0.8	3.17699135153804
			 vertex	-2.38527732986691	0.8	-3.21098926494982
		 endloop
	 facet normal	0	1	0
		 outer loop
			 vertex	-2.38527732986691	0.8	-3.21098926494982
			 vertex	-2.4303756812996	0.8	3.17699135153804
			 vertex	-2.38527732986691	0.8	3.21098926494982
		 endloop
	 facet normal	0	1	0
		 outer loop
			 vertex	-2.38527732986691	0.8	-3.21098926494982
			 vertex	-2.38527732986691	0.8	3.21098926494982
			 vertex	-2.33970345559567	0.8	-3.24434704368594
		 endloop
	 facet normal	0	1	0
		 outer loop
			 vertex	-2.33970345559567	0.8	-3.24434704368594
			 vertex	-2.38527732986691	0.8	3.21098926494982
			 vertex	-2.33970345559567	0.8	3.24434704368594
		 endloop
	 facet normal	0	1	0
		 outer loop
			 vertex	-2.33970345559567	0.8	-3.24434704368594
			 vertex	-2.33970345559567	0.8	3.24434704368594
			 vertex	-2.29366314397783	0.8	-3.27705803762426
		 endloop
	 facet normal	0	1	0
		 outer loop
			 vertex	-2.29366314397783	0.8	-3.27705803762426
			 vertex	-2.33970345559567	0.8	3.24434704368594
			 vertex	-2.29366314397783	0.8	3.27705803762426
		 endloop
	 facet normal	0	1	0
		 outer loop
			 vertex	-2.29366314397783	0.8	-3.27705803762426
			 vertex	-2.29366314397783	0.8	3.27705803762426
			 vertex	-2.24716557349316	0.8	-3.30911572558398
		 endloop
	 facet normal	0	1	0
		 outer loop
			 vertex	-2.24716557349316	0.8	-3.30911572558398
			 vertex	-2.29366314397783	0.8	3.27705803762426
			 vertex	-2.24716557349316	0.8	3.30911572558398
		 endloop
	 facet normal	0	1	0
		 outer loop
			 vertex	-2.24716557349316	0.8	-3.30911572558398
			 vertex	-2.24716557349316	0.8	3.30911572558398
			 vertex	-2.20022001377937	0.8	-3.34051371662574
		 endloop
	 facet normal	0	1	0
		 outer loop
			 vertex	-2.20022001377937	0.8	-3.34051371662574
			 vertex	-2.24716557349316	0.8	3.30911572558398
			 vertex	-2.20022001377937	0.8	3.34051371662574
		 endloop
	 facet normal	0	1	0
		 outer loop
			 vertex	-2.20022001377937	0.8	-3.34051371662574
			 vertex	-2.20022001377937	0.8	3.34051371662574
			 vertex	-2.15283582378417	0.8	-3.37124575132569
		 endloop
	 facet normal	0	1	0
		 outer loop
			 vertex	-2.15283582378417	0.8	-3.37124575132569
			 vertex	-2.20022001377937	0.8	3.34051371662574
			 vertex	-2.15283582378417	0.8	3.3712457513257
		 endloop
	 facet normal	0	1	0
		 outer loop
			 vertex	-2.15283582378417	0.8	-3.37124575132569
			 vertex	-2.15283582378417	0.8	3.3712457513257
			 vertex	-2.1050224498995	0.8	-3.40130570302334
		 endloop
	 facet normal	0	1	0
		 outer loop
			 vertex	-2.1050224498995	0.8	-3.40130570302334
			 vertex	-2.15283582378417	0.8	3.3712457513257
			 vertex	-2.1050224498995	0.8	3.40130570302334
		 endloop
	 facet normal	0	1	0
		 outer loop
			 vertex	-2.1050224498995	0.8	-3.40130570302334
			 vertex	-2.1050224498995	0.8	3.40130570302334
			 vertex	-2.05678942407831	0.8	-3.43068757904296
		 endloop
	 facet normal	0	1	0
		 outer loop
			 vertex	-2.05678942407831	0.8	-3.43068757904296
			 vertex	-2.1050224498995	0.8	3.40130570302334
			 vertex	-2.05678942407831	0.8	3.43068757904296
		 endloop
	 facet normal	0	1	0
		 outer loop
			 vertex	-2.05678942407831	0.8	-3.43068757904296
			 vertex	-2.05678942407831	0.8	3.43068757904296
			 vertex	-2.00814636193428	0.8	-3.45938552188826
		 endloop
	 facet normal	0	1	0
		 outer loop
			 vertex	-2.00814636193428	0.8	-3.45938552188826
			 vertex	-2.05678942407831	0.8	3.43068757904296
			 vertex	-2.00814636193428	0.8	3.45938552188826
		 endloop
	 facet normal	0	1	0
		 outer loop
			 vertex	-2.00814636193428	0.8	-3.45938552188826
			 vertex	-2.00814636193428	0.8	3.45938552188826
			 vertex	-1.95910296082491	0.8	-3.48739381041015
		 endloop
	 facet normal	0	1	0
		 outer loop
			 vertex	-1.95910296082491	0.8	-3.48739381041015
			 vertex	-2.00814636193428	0.8	3.45938552188826
			 vertex	-1.95910296082491	0.8	3.48739381041015
		 endloop
	 facet normal	0	1	0
		 outer loop
			 vertex	-1.95910296082491	0.8	-3.48739381041015
			 vertex	-1.95910296082491	0.8	3.48739381041015
			 vertex	-1.90966899791826	0.8	-3.51470686094728
		 endloop
	 facet normal	0	1	0
		 outer loop
			 vertex	-1.90966899791826	0.8	-3.51470686094728
			 vertex	-1.95910296082491	0.8	3.48739381041015
			 vertex	-1.90966899791826	0.8	3.51470686094728
		 endloop
	 facet normal	0	1	0
		 outer loop
			 vertex	-1.90966899791826	0.8	-3.51470686094728
			 vertex	-1.90966899791826	0.8	3.51470686094728
			 vertex	-1.85985432824378	0.8	-3.54131922843915
		 endloop
	 facet normal	0	1	0
		 outer loop
			 vertex	-1.85985432824378	0.8	-3.54131922843915
			 vertex	-1.90966899791826	0.8	3.51470686094728
			 vertex	-1.85985432824378	0.8	3.54131922843915
		 endloop
	 facet normal	0	1	0
		 outer loop
			 vertex	-1.85985432824378	0.8	-3.54131922843915
			 vertex	-1.85985432824378	0.8	3.54131922843915
			 vertex	-1.80966888272768	0.8	-3.56722560751169
		 endloop
	 facet normal	0	1	0
		 outer loop
			 vertex	-1.80966888272768	0.8	-3.56722560751169
			 vertex	-1.85985432824378	0.8	3.54131922843915
			 vertex	-1.80966888272768	0.8	3.56722560751169
		 endloop
	 facet normal	0	1	0
		 outer loop
			 vertex	-1.80966888272768	0.8	-3.56722560751169
			 vertex	-1.80966888272768	0.8	3.56722560751169
			 vertex	-1.75912266621308	0.8	-3.59242083353487
		 endloop
	 facet normal	0	1	0
		 outer loop
			 vertex	-1.75912266621308	0.8	-3.59242083353487
			 vertex	-1.80966888272768	0.8	3.56722560751169
			 vertex	-1.75912266621308	0.8	3.59242083353487
		 endloop
	 facet normal	0	1	0
		 outer loop
			 vertex	-1.75912266621308	0.8	-3.59242083353487
			 vertex	-1.75912266621308	0.8	3.59242083353487
			 vertex	-1.7082257554655	0.8	-3.61689988365234
		 endloop
	 facet normal	0	1	0
		 outer loop
			 vertex	-1.7082257554655	0.8	-3.61689988365234
			 vertex	-1.75912266621308	0.8	3.59242083353487
			 vertex	-1.7082257554655	0.8	3.61689988365234
		 endloop
	 facet normal	0	1	0
		 outer loop
			 vertex	-1.7082257554655	0.8	-3.61689988365234
			 vertex	-1.7082257554655	0.8	3.61689988365234
			 vertex	-1.65698829716399	0.8	-3.64065787778275
		 endloop
	 facet normal	0	1	0
		 outer loop
			 vertex	-1.65698829716399	0.8	-3.64065787778275
			 vertex	-1.7082257554655	0.8	3.61689988365234
			 vertex	-1.65698829716399	0.8	3.64065787778275
		 endloop
	 facet normal	0	1	0
		 outer loop
			 vertex	-1.65698829716399	0.8	-3.64065787778275
			 vertex	-1.65698829716399	0.8	3.64065787778275
			 vertex	-1.60542050587826	0.8	-3.66369007959265
		 endloop
	 facet normal	0	1	0
		 outer loop
			 vertex	-1.60542050587826	0.8	-3.66369007959265
			 vertex	-1.65698829716399	0.8	3.64065787778275
			 vertex	-1.60542050587826	0.8	3.66369007959265
		 endloop
	 facet normal	0	1	0
		 outer loop
			 vertex	-1.60542050587826	0.8	-3.66369007959265
			 vertex	-1.60542050587826	0.8	3.66369007959265
			 vertex	-1.55353266203241	0.8	-3.6859918974407
		 endloop
	 facet normal	0	1	0
		 outer loop
			 vertex	-1.55353266203241	0.8	-3.6859918974407
			 vertex	-1.60542050587826	0.8	3.66369007959265
			 vertex	-1.55353266203241	0.8	3.6859918974407
		 endloop
	 facet normal	0	1	0
		 outer loop
			 vertex	-1.55353266203241	0.8	-3.6859918974407
			 vertex	-1.55353266203241	0.8	3.6859918974407
			 vertex	-1.50133510985536	0.8	-3.70755888529307
		 endloop
	 facet normal	0	1	0
		 outer loop
			 vertex	-1.50133510985536	0.8	-3.70755888529307
			 vertex	-1.55353266203241	0.8	3.6859918974407
			 vertex	-1.50133510985536	0.8	3.70755888529307
		 endloop
	 facet normal	0	1	0
		 outer loop
			 vertex	-1.50133510985536	0.8	-3.70755888529307
			 vertex	-1.50133510985536	0.8	3.70755888529307
			 vertex	-1.44883825531873	0.8	-3.72838674360976
		 endloop
	 facet normal	0	1	0
		 outer loop
			 vertex	-1.44883825531873	0.8	-3.72838674360976
			 vertex	-1.50133510985536	0.8	3.70755888529307
			 vertex	-1.44883825531873	0.8	3.72838674360976
		 endloop
	 facet normal	0	1	0
		 outer loop
			 vertex	-1.44883825531873	0.8	-3.72838674360976
			 vertex	-1.44883825531873	0.8	3.72838674360976
			 vertex	-1.39605256406229	0.8	-3.74847132020176
		 endloop
	 facet normal	0	1	0
		 outer loop
			 vertex	-1.39605256406229	0.8	-3.74847132020176
			 vertex	-1.44883825531873	0.8	3.72838674360976
			 vertex	-1.39605256406229	0.8	3.74847132020176
		 endloop
	 facet normal	0	1	0
		 outer loop
			 vertex	-1.39605256406229	0.8	-3.74847132020176
			 vertex	-1.39605256406229	0.8	3.74847132020176
			 vertex	-1.34298855930757	0.8	-3.76780861105882
		 endloop
	 facet normal	0	1	0
		 outer loop
			 vertex	-1.34298855930757	0.8	-3.76780861105882
			 vertex	-1.39605256406229	0.8	3.74847132020176
			 vertex	-1.34298855930757	0.8	3.76780861105882
		 endloop
	 facet normal	0	1	0
		 outer loop
			 vertex	-1.34298855930757	0.8	-3.76780861105882
			 vertex	-1.34298855930757	0.8	3.76780861105882
			 vertex	-1.28965681975996	0.8	-3.78639476114768
		 endloop
	 facet normal	0	1	0
		 outer loop
			 vertex	-1.28965681975996	0.8	-3.78639476114768
			 vertex	-1.34298855930757	0.8	3.76780861105882
			 vertex	-1.28965681975996	0.8	3.78639476114769
		 endloop
	 facet normal	0	1	0
		 outer loop
			 vertex	-1.28965681975996	0.8	-3.78639476114768
			 vertex	-1.28965681975996	0.8	3.78639476114769
			 vertex	-1.23606797749979	0.8	-3.80422606518061
		 endloop
	 facet normal	0	1	0
		 outer loop
			 vertex	-1.23606797749979	0.8	-3.80422606518061
			 vertex	-1.28965681975996	0.8	3.78639476114769
			 vertex	-1.23606797749979	0.8	3.80422606518061
		 endloop
	 facet normal	0	1	0
		 outer loop
			 vertex	-1.23606797749979	0.8	-3.80422606518061
			 vertex	-1.23606797749979	0.8	3.80422606518061
			 vertex	-1.18223271586274	0.8	-3.82129896835406
		 endloop
	 facet normal	0	1	0
		 outer loop
			 vertex	-1.18223271586274	0.8	-3.82129896835406
			 vertex	-1.23606797749979	0.8	3.80422606518061
			 vertex	-1.18223271586274	0.8	3.82129896835406
		 endloop
	 facet normal	0	1	0
		 outer loop
			 vertex	-1.18223271586274	0.8	-3.82129896835406
			 vertex	-1.18223271586274	0.8	3.82129896835406
			 vertex	-1.12816176731001	0.8	-3.83761006705735
		 endloop
	 facet normal	0	1	0
		 outer loop
			 vertex	-1.12816176731001	0.8	-3.83761006705735
			 vertex	-1.18223271586274	0.8	3.82129896835406
			 vertex	-1.12816176731001	0.8	3.83761006705735
		 endloop
	 facet normal	0	1	0
		 outer loop
			 vertex	-1.12816176731001	0.8	-3.83761006705735
			 vertex	-1.12816176731001	0.8	3.83761006705735
			 vertex	-1.07386591128878	0.8	-3.85315610955122
		 endloop
	 facet normal	0	1	0
		 outer loop
			 vertex	-1.07386591128878	0.8	-3.85315610955122
			 vertex	-1.12816176731001	0.8	3.83761006705735
			 vertex	-1.07386591128878	0.8	3.85315610955122
		 endloop
	 facet normal	0	1	0
		 outer loop
			 vertex	-1.07386591128878	0.8	-3.85315610955122
			 vertex	-1.07386591128878	0.8	3.85315610955122
			 vertex	-1.01935597208317	0.8	-3.86793399661607
		 endloop
	 facet normal	0	1	0
		 outer loop
			 vertex	-1.01935597208317	0.8	-3.86793399661607
			 vertex	-1.07386591128878	0.8	3.85315610955122
			 vertex	-1.01935597208317	0.8	3.86793399661607
		 endloop
	 facet normal	0	1	0
		 outer loop
			 vertex	-1.01935597208317	0.8	-3.86793399661607
			 vertex	-1.01935597208317	0.8	3.86793399661607
			 vertex	-0.964642816656424	0.8	-3.88194078216981
		 endloop
	 facet normal	0	1	0
		 outer loop
			 vertex	-0.964642816656424	0.8	-3.88194078216981
			 vertex	-1.01935597208317	0.8	3.86793399661607
			 vertex	-0.964642816656423	0.8	3.88194078216981
		 endloop
	 facet normal	0	1	0
		 outer loop
			 vertex	-0.964642816656424	0.8	-3.88194078216981
			 vertex	-0.964642816656423	0.8	3.88194078216981
			 vertex	-0.909737352484425	0.8	-3.8951736738552
		 endloop
	 facet normal	0	1	0
		 outer loop
			 vertex	-0.909737352484425	0.8	-3.8951736738552
			 vertex	-0.964642816656423	0.8	3.88194078216981
			 vertex	-0.909737352484426	0.8	3.8951736738552
		 endloop
	 facet normal	0	1	0
		 outer loop
			 vertex	-0.909737352484425	0.8	-3.8951736738552
			 vertex	-0.909737352484426	0.8	3.8951736738552
			 vertex	-0.854650525381253	0.8	-3.90763003359652
		 endloop
	 facet normal	0	1	0
		 outer loop
			 vertex	-0.854650525381253	0.8	-3.90763003359652
			 vertex	-0.909737352484426	0.8	3.8951736738552
			 vertex	-0.854650525381251	0.8	3.90763003359652
		 endloop
	 facet normal	0	1	0
		 outer loop
			 vertex	-0.854650525381253	0.8	-3.90763003359652
			 vertex	-0.854650525381251	0.8	3.90763003359652
			 vertex	-0.79939331731704	0.8	-3.91930737812548
		 endloop
	 facet normal	0	1	0
		 outer loop
			 vertex	-0.79939331731704	0.8	-3.91930737812548
			 vertex	-0.854650525381251	0.8	3.90763003359652
			 vertex	-0.799393317317039	0.8	3.91930737812548
		 endloop
	 facet normal	0	1	0
		 outer loop
			 vertex	-0.79939331731704	0.8	-3.91930737812548
			 vertex	-0.799393317317039	0.8	3.91930737812548
			 vertex	-0.743976744228631	0.8	-3.9302033794763
		 endloop
	 facet normal	0	1	0
		 outer loop
			 vertex	-0.743976744228631	0.8	-3.9302033794763
			 vertex	-0.799393317317039	0.8	3.91930737812548
			 vertex	-0.743976744228632	0.8	3.9302033794763
		 endloop
	 facet normal	0	1	0
		 outer loop
			 vertex	-0.743976744228631	0.8	-3.9302033794763
			 vertex	-0.743976744228632	0.8	3.9302033794763
			 vertex	-0.688411853823484	0.8	-3.94031586544979
		 endloop
	 facet normal	0	1	0
		 outer loop
			 vertex	-0.688411853823484	0.8	-3.94031586544979
			 vertex	-0.743976744228632	0.8	3.9302033794763
			 vertex	-0.688411853823482	0.8	3.94031586544979
		 endloop
	 facet normal	0	1	0
		 outer loop
			 vertex	-0.688411853823484	0.8	-3.94031586544979
			 vertex	-0.688411853823482	0.8	3.94031586544979
			 vertex	-0.632709723377216	0.8	-3.94964282004638
		 endloop
	 facet normal	0	1	0
		 outer loop
			 vertex	-0.632709723377216	0.8	-3.94964282004638
			 vertex	-0.688411853823482	0.8	3.94031586544979
			 vertex	-0.632709723377216	0.8	3.94964282004638
		 endloop
	 facet normal	0	1	0
		 outer loop
			 vertex	-0.632709723377216	0.8	-3.94964282004638
			 vertex	-0.632709723377216	0.8	3.94964282004638
			 vertex	-0.576881457525273	0.8	-3.95818238386807
		 endloop
	 facet normal	0	1	0
		 outer loop
			 vertex	-0.576881457525273	0.8	-3.95818238386807
			 vertex	-0.632709723377216	0.8	3.94964282004638
			 vertex	-0.576881457525274	0.8	3.95818238386807
		 endloop
	 facet normal	0	1	0
		 outer loop
			 vertex	-0.576881457525273	0.8	-3.95818238386807
			 vertex	-0.576881457525274	0.8	3.95818238386807
			 vertex	-0.520938186049134	0.8	-3.96593285448907
		 endloop
	 facet normal	0	1	0
		 outer loop
			 vertex	-0.520938186049134	0.8	-3.96593285448907
			 vertex	-0.576881457525274	0.8	3.95818238386807
			 vertex	-0.520938186049133	0.8	3.96593285448907
		 endloop
	 facet normal	0	1	0
		 outer loop
			 vertex	-0.520938186049134	0.8	-3.96593285448907
			 vertex	-0.520938186049133	0.8	3.96593285448907
			 vertex	-0.46489106165751	0.8	-3.97289268679522
		 endloop
	 facet normal	0	1	0
		 outer loop
			 vertex	-0.46489106165751	0.8	-3.97289268679522
			 vertex	-0.520938186049133	0.8	3.96593285448907
			 vertex	-0.46489106165751	0.8	3.97289268679522
		 endloop
	 facet normal	0	1	0
		 outer loop
			 vertex	-0.46489106165751	0.8	-3.97289268679522
			 vertex	-0.46489106165751	0.8	3.97289268679522
			 vertex	-0.408751257762962	0.8	-3.979060493292
		 endloop
	 facet normal	0	1	0
		 outer loop
			 vertex	-0.408751257762962	0.8	-3.979060493292
			 vertex	-0.46489106165751	0.8	3.97289268679522
			 vertex	-0.408751257762964	0.8	3.979060493292
		 endloop
	 facet normal	0	1	0
		 outer loop
			 vertex	-0.408751257762962	0.8	-3.979060493292
			 vertex	-0.408751257762964	0.8	3.979060493292
			 vertex	-0.352529966254407	0.8	-3.98443504438116
		 endloop
	 facet normal	0	1	0
		 outer loop
			 vertex	-0.352529966254407	0.8	-3.98443504438116
			 vertex	-0.408751257762964	0.8	3.979060493292
			 vertex	-0.352529966254406	0.8	3.98443504438116
		 endloop
	 facet normal	0	1	0
		 outer loop
			 vertex	-0.352529966254407	0.8	-3.98443504438116
			 vertex	-0.352529966254406	0.8	3.98443504438116
			 vertex	-0.29623839526592	0.8	-3.98901526860581
		 endloop
	 facet normal	0	1	0
		 outer loop
			 vertex	-0.29623839526592	0.8	-3.98901526860581
			 vertex	-0.352529966254406	0.8	3.98443504438116
			 vertex	-0.29623839526592	0.8	3.98901526860581
		 endloop
	 facet normal	0	1	0
		 outer loop
			 vertex	-0.29623839526592	0.8	-3.98901526860581
			 vertex	-0.29623839526592	0.8	3.98901526860581
			 vertex	-0.239887766942319	0.8	-3.99280025286408
		 endloop
	 facet normal	0	1	0
		 outer loop
			 vertex	-0.239887766942319	0.8	-3.99280025286408
			 vertex	-0.29623839526592	0.8	3.98901526860581
			 vertex	-0.239887766942317	0.8	3.99280025286408
		 endloop
	 facet normal	0	1	0
		 outer loop
			 vertex	-0.239887766942319	0.8	-3.99280025286408
			 vertex	-0.239887766942317	0.8	3.99280025286408
			 vertex	-0.183489315201942	0.8	-3.9957892425911
		 endloop
	 facet normal	0	1	0
		 outer loop
			 vertex	-0.183489315201942	0.8	-3.9957892425911
			 vertex	-0.239887766942317	0.8	3.99280025286408
			 vertex	-0.183489315201941	0.8	3.9957892425911
		 endloop
	 facet normal	0	1	0
		 outer loop
			 vertex	-0.183489315201942	0.8	-3.9957892425911
			 vertex	-0.183489315201941	0.8	3.9957892425911
			 vertex	-0.127054283497079	0.8	-3.99798164190946
		 endloop
	 facet normal	0	1	0
		 outer loop
			 vertex	-0.127054283497079	0.8	-3.99798164190946
			 vertex	-0.183489315201941	0.8	3.9957892425911
			 vertex	-0.12705428349708	0.8	3.99798164190946
		 endloop
	 facet normal	0	1	0
		 outer loop
			 vertex	-0.127054283497079	0.8	-3.99798164190946
			 vertex	-0.12705428349708	0.8	3.99798164190946
			 vertex	-0.0705939225725143	0.8	-3.99937701374799
		 endloop
	 facet normal	0	1	0
		 outer loop
			 vertex	-0.0705939225725143	0.8	-3.99937701374799
			 vertex	-0.12705428349708	0.8	3.99798164190946
			 vertex	-0.0705939225725126	0.8	3.99937701374799
		 endloop
	 facet normal	0	1	0
		 outer loop
			 vertex	-0.0705939225725143	0.8	-3.99937701374799
			 vertex	-0.0705939225725126	0.8	3.99937701374799
			 vertex	-0.014119488222596	0.8	-3.99997507992892
		 endloop
	 facet normal	0	1	0
		 outer loop
			 vertex	-0.014119488222596	0.8	-3.99997507992892
			 vertex	-0.0705939225725126	0.8	3.99937701374799
			 vertex	-0.014119488222596	0.8	3.99997507992892
		 endloop
	 facet normal	0	1	0
		 outer loop
			 vertex	-0.014119488222596	0.8	-3.99997507992892
			 vertex	-0.014119488222596	0.8	3.99997507992892
			 vertex	0.0423577609526815	0.8	-3.99977572122326
		 endloop
	 facet normal	0	1	0
		 outer loop
			 vertex	0.0423577609526815	0.8	-3.99977572122326
			 vertex	-0.014119488222596	0.8	3.99997507992892
			 vertex	0.0423577609526806	0.8	3.99977572122326
		 endloop
	 facet normal	0	1	0
		 outer loop
			 vertex	0.0423577609526815	0.8	-3.99977572122326
			 vertex	0.0423577609526806	0.8	3.99977572122326
			 vertex	0.0988265657921698	0.8	-3.99877897737468
		 endloop
	 facet normal	0	1	0
		 outer loop
			 vertex	0.0988265657921698	0.8	-3.99877897737468
			 vertex	0.0423577609526806	0.8	3.99977572122326
			 vertex	0.0988265657921716	0.8	3.99877897737468
		 endloop
	 facet normal	0	1	0
		 outer loop
			 vertex	0.0988265657921698	0.8	-3.99877897737468
			 vertex	0.0988265657921716	0.8	3.99877897737468
			 vertex	0.155275668818162	0.8	-3.9969850470915
		 endloop
	 facet normal	0	1	0
		 outer loop
			 vertex	0.155275668818162	0.8	-3.9969850470915
			 vertex	0.0988265657921716	0.8	3.99877897737468
			 vertex	0.155275668818162	0.8	3.9969850470915
		 endloop
	 facet normal	0	1	0
		 outer loop
			 vertex	0.155275668818162	0.8	-3.9969850470915
			 vertex	0.155275668818162	0.8	3.9969850470915
			 vertex	0.211693816480652	0.8	-3.99439428800711
		 endloop
	 facet normal	0	1	0
		 outer loop
			 vertex	0.211693816480652	0.8	-3.99439428800711
			 vertex	0.155275668818162	0.8	3.9969850470915
			 vertex	0.211693816480651	0.8	3.99439428800711
		 endloop
	 facet normal	0	1	0
		 outer loop
			 vertex	0.211693816480652	0.8	-3.99439428800711
			 vertex	0.211693816480651	0.8	3.99439428800711
			 vertex	0.268069761400821	0.8	-3.99100721660867
		 endloop
	 facet normal	0	1	0
		 outer loop
			 vertex	0.268069761400821	0.8	-3.99100721660867
			 vertex	0.211693816480651	0.8	3.99439428800711
			 vertex	0.268069761400822	0.8	3.99100721660867
		 endloop
	 facet normal	0	1	0
		 outer loop
			 vertex	0.268069761400821	0.8	-3.99100721660867
			 vertex	0.268069761400822	0.8	3.99100721660867
			 vertex	0.324392264613276	0.8	-3.98682450813415
		 endloop
	 facet normal	0	1	0
		 outer loop
			 vertex	0.324392264613276	0.8	-3.98682450813415
			 vertex	0.268069761400822	0.8	3.99100721660867
			 vertex	0.324392264613276	0.8	3.98682450813415
		 endloop
	 facet normal	0	1	0
		 outer loop
			 vertex	0.324392264613276	0.8	-3.98682450813415
			 vertex	0.324392264613276	0.8	3.98682450813415
			 vertex	0.380650097806633	0.8	-3.98184699643768
		 endloop
	 facet normal	0	1	0
		 outer loop
			 vertex	0.380650097806633	0.8	-3.98184699643768
			 vertex	0.324392264613276	0.8	3.98682450813415
			 vertex	0.380650097806631	0.8	3.98184699643768
		 endloop
	 facet normal	0	1	0
		 outer loop
			 vertex	0.380650097806633	0.8	-3.98184699643768
			 vertex	0.380650097806631	0.8	3.98184699643768
			 vertex	0.436832045561954	0.8	-3.97607567382339
		 endloop
	 facet normal	0	1	0
		 outer loop
			 vertex	0.436832045561954	0.8	-3.97607567382339
			 vertex	0.380650097806631	0.8	3.98184699643768
			 vertex	0.436832045561955	0.8	3.97607567382339
		 endloop
	 facet normal	0	1	0
		 outer loop
			 vertex	0.436832045561954	0.8	-3.97607567382339
			 vertex	0.436832045561955	0.8	3.97607567382339
			 vertex	0.492926907588635	0.8	-3.96951169084752
		 endloop
	 facet normal	0	1	0
		 outer loop
			 vertex	0.492926907588635	0.8	-3.96951169084752
			 vertex	0.436832045561955	0.8	3.97607567382339
			 vertex	0.492926907588635	0.8	3.96951169084752
		 endloop
	 facet normal	0	1	0
		 outer loop
			 vertex	0.492926907588635	0.8	-3.96951169084752
			 vertex	0.492926907588635	0.8	3.96951169084752
			 vertex	0.548923500957257	0.8	-3.96215635608905
		 endloop
	 facet normal	0	1	0
		 outer loop
			 vertex	0.548923500957257	0.8	-3.96215635608905
			 vertex	0.492926907588635	0.8	3.96951169084752
			 vertex	0.548923500957259	0.8	3.96215635608905
		 endloop
	 facet normal	0	1	0
		 outer loop
			 vertex	0.548923500957257	0.8	-3.96215635608905
			 vertex	0.548923500957259	0.8	3.96215635608905
			 vertex	0.604810662328993	0.8	-3.95401113588887
		 endloop
	 facet normal	0	1	0
		 outer loop
			 vertex	0.604810662328993	0.8	-3.95401113588887
			 vertex	0.548923500957259	0.8	3.96215635608905
			 vertex	0.604810662328994	0.8	3.95401113588887
		 endloop
	 facet normal	0	1	0
		 outer loop
			 vertex	0.604810662328993	0.8	-3.95401113588887
			 vertex	0.604810662328994	0.8	3.95401113588887
			 vertex	0.660577250181104	0.8	-3.94507765405742
		 endloop
	 facet normal	0	1	0
		 outer loop
			 vertex	0.660577250181104	0.8	-3.94507765405742
			 vertex	0.604810662328994	0.8	3.95401113588887
			 vertex	0.660577250181103	0.8	3.94507765405742
		 endloop
	 facet normal	0	1	0
		 outer loop
			 vertex	0.660577250181104	0.8	-3.94507765405742
			 vertex	0.660577250181103	0.8	3.94507765405742
			 vertex	0.716212147028076	0.8	-3.93535769155098
		 endloop
	 facet normal	0	1	0
		 outer loop
			 vertex	0.716212147028076	0.8	-3.93535769155098
			 vertex	0.660577250181103	0.8	3.94507765405742
			 vertex	0.716212147028078	0.8	3.93535769155098
		 endloop
	 facet normal	0	1	0
		 outer loop
			 vertex	0.716212147028076	0.8	-3.93535769155098
			 vertex	0.716212147028078	0.8	3.93535769155098
			 vertex	0.771704261637988	0.8	-3.92485318611662
		 endloop
	 facet normal	0	1	0
		 outer loop
			 vertex	0.771704261637988	0.8	-3.92485318611662
			 vertex	0.716212147028078	0.8	3.93535769155098
			 vertex	0.771704261637988	0.8	3.92485318611662
		 endloop
	 facet normal	0	1	0
		 outer loop
			 vertex	0.771704261637988	0.8	-3.92485318611662
			 vertex	0.771704261637988	0.8	3.92485318611662
			 vertex	0.827042531243615	0.8	-3.9135662319059
		 endloop
	 facet normal	0	1	0
		 outer loop
			 vertex	0.827042531243615	0.8	-3.9135662319059
			 vertex	0.771704261637988	0.8	3.92485318611662
			 vertex	0.827042531243614	0.8	3.9135662319059
		 endloop
	 facet normal	0	1	0
		 outer loop
			 vertex	0.827042531243615	0.8	-3.9135662319059
			 vertex	0.827042531243614	0.8	3.9135662319059
			 vertex	0.882215923747889	0.8	-3.90149907905739
		 endloop
	 facet normal	0	1	0
		 outer loop
			 vertex	0.882215923747889	0.8	-3.90149907905739
			 vertex	0.827042531243614	0.8	3.9135662319059
			 vertex	0.88221592374789	0.8	3.90149907905739
		 endloop
	 facet normal	0	1	0
		 outer loop
			 vertex	0.882215923747889	0.8	-3.90149907905739
			 vertex	0.88221592374789	0.8	3.90149907905739
			 vertex	0.937213439923217	0.8	-3.88865413324807
		 endloop
	 facet normal	0	1	0
		 outer loop
			 vertex	0.937213439923217	0.8	-3.88865413324807
			 vertex	0.88221592374789	0.8	3.90149907905739
			 vertex	0.937213439923217	0.8	3.88865413324807
		 endloop
	 facet normal	0	1	0
		 outer loop
			 vertex	0.937213439923217	0.8	-3.88865413324807
			 vertex	0.937213439923217	0.8	3.88865413324807
			 vertex	0.99202411560427	0.8	-3.87503395521376
		 endloop
	 facet normal	0	1	0
		 outer loop
			 vertex	0.99202411560427	0.8	-3.87503395521376
			 vertex	0.937213439923217	0.8	3.88865413324807
			 vertex	0.992024115604269	0.8	3.87503395521376
		 endloop
	 facet normal	0	1	0
		 outer loop
			 vertex	0.99202411560427	0.8	-3.87503395521376
			 vertex	0.992024115604269	0.8	3.87503395521376
			 vertex	1.04663702387376	0.8	-3.8606412602386
		 endloop
	 facet normal	0	1	0
		 outer loop
			 vertex	1.04663702387376	0.8	-3.8606412602386
			 vertex	0.992024115604269	0.8	3.87503395521376
			 vertex	1.04663702387376	0.8	3.8606412602386
		 endloop
	 facet normal	0	1	0
		 outer loop
			 vertex	1.04663702387376	0.8	-3.8606412602386
			 vertex	1.04663702387376	0.8	3.8606412602386
			 vertex	1.10104127724082	0.8	-3.84547891761376
		 endloop
	 facet normal	0	1	0
		 outer loop
			 vertex	1.10104127724082	0.8	-3.84547891761376
			 vertex	1.04663702387376	0.8	3.8606412602386
			 vertex	1.10104127724082	0.8	3.84547891761376
		 endloop
	 facet normal	0	1	0
		 outer loop
			 vertex	1.10104127724082	0.8	-3.84547891761376
			 vertex	1.10104127724082	0.8	3.84547891761376
			 vertex	1.15522602981148	0.8	-3.82954995006541
		 endloop
	 facet normal	0	1	0
		 outer loop
			 vertex	1.15522602981148	0.8	-3.82954995006541
			 vertex	1.10104127724082	0.8	3.84547891761376
			 vertex	1.15522602981148	0.8	3.82954995006541
		 endloop
	 facet normal	0	1	0
		 outer loop
			 vertex	1.15522602981148	0.8	-3.82954995006541
			 vertex	1.15522602981148	0.8	3.82954995006541
			 vertex	1.2091804794509	0.8	-3.81285753315212
		 endloop
	 facet normal	0	1	0
		 outer loop
			 vertex	1.2091804794509	0.8	-3.81285753315212
			 vertex	1.15522602981148	0.8	3.82954995006541
			 vertex	1.2091804794509	0.8	3.81285753315212
		 endloop
	 facet normal	0	1	0
		 outer loop
			 vertex	1.2091804794509	0.8	-3.81285753315212
			 vertex	1.2091804794509	0.8	3.81285753315212
			 vertex	1.26289386993685	0.8	-3.79540499463179
		 endloop
	 facet normal	0	1	0
		 outer loop
			 vertex	1.26289386993685	0.8	-3.79540499463179
			 vertex	1.2091804794509	0.8	3.81285753315212
			 vertex	1.26289386993685	0.8	3.79540499463179
		 endloop
	 facet normal	0	1	0
		 outer loop
			 vertex	1.26289386993685	0.8	-3.79540499463179
			 vertex	1.26289386993685	0.8	3.79540499463179
			 vertex	1.31635549310404	0.8	-3.77719581379822
		 endloop
	 facet normal	0	1	0
		 outer loop
			 vertex	1.31635549310404	0.8	-3.77719581379822
			 vertex	1.26289386993685	0.8	3.79540499463179
			 vertex	1.31635549310404	0.8	3.77719581379822
		 endloop
	 facet normal	0	1	0
		 outer loop
			 vertex	1.31635549310404	0.8	-3.77719581379822
			 vertex	1.31635549310404	0.8	3.77719581379822
			 vertex	1.36955469097887	0.8	-3.75823362078753
		 endloop
	 facet normal	0	1	0
		 outer loop
			 vertex	1.36955469097887	0.8	-3.75823362078753
			 vertex	1.31635549310404	0.8	3.77719581379822
			 vertex	1.36955469097887	0.8	3.75823362078753
		 endloop
	 facet normal	0	1	0
		 outer loop
			 vertex	1.36955469097887	0.8	-3.75823362078753
			 vertex	1.36955469097887	0.8	3.75823362078753
			 vertex	1.42248085790418	0.8	-3.73852219585442
		 endloop
	 facet normal	0	1	0
		 outer loop
			 vertex	1.42248085790418	0.8	-3.73852219585442
			 vertex	1.36955469097887	0.8	3.75823362078753
			 vertex	1.42248085790418	0.8	3.73852219585442
		 endloop
	 facet normal	0	1	0
		 outer loop
			 vertex	1.42248085790418	0.8	-3.73852219585442
			 vertex	1.42248085790418	0.8	3.73852219585442
			 vertex	1.47512344265359	0.8	-3.71806546861857
		 endloop
	 facet normal	0	1	0
		 outer loop
			 vertex	1.47512344265359	0.8	-3.71806546861857
			 vertex	1.42248085790418	0.8	3.73852219585442
			 vertex	1.47512344265359	0.8	3.71806546861857
		 endloop
	 facet normal	0	1	0
		 outer loop
			 vertex	1.47512344265359	0.8	-3.71806546861857
			 vertex	1.47512344265359	0.8	3.71806546861857
			 vertex	1.5274719505349	0.8	-3.69686751728123
		 endloop
	 facet normal	0	1	0
		 outer loop
			 vertex	1.5274719505349	0.8	-3.69686751728123
			 vertex	1.47512344265359	0.8	3.71806546861857
			 vertex	1.5274719505349	0.8	3.69686751728123
		 endloop
	 facet normal	0	1	0
		 outer loop
			 vertex	1.5274719505349	0.8	-3.69686751728123
			 vertex	1.5274719505349	0.8	3.69686751728123
			 vertex	1.57951594548237	0.8	-3.67493256781222
		 endloop
	 facet normal	0	1	0
		 outer loop
			 vertex	1.57951594548237	0.8	-3.67493256781222
			 vertex	1.5274719505349	0.8	3.69686751728123
			 vertex	1.57951594548236	0.8	3.67493256781222
		 endloop
	 facet normal	0	1	0
		 outer loop
			 vertex	1.57951594548237	0.8	-3.67493256781222
			 vertex	1.57951594548236	0.8	3.67493256781222
			 vertex	1.63124505213716	0.8	-3.65226499310743
		 endloop
	 facet normal	0	1	0
		 outer loop
			 vertex	1.63124505213716	0.8	-3.65226499310743
			 vertex	1.57951594548236	0.8	3.67493256781222
			 vertex	1.63124505213716	0.8	3.65226499310743
		 endloop
	 facet normal	0	1	0
		 outer loop
			 vertex	1.63124505213716	0.8	-3.65226499310743
			 vertex	1.63124505213716	0.8	3.65226499310743
			 vertex	1.68264895791577	0.8	-3.62886931211706
		 endloop
	 facet normal	0	1	0
		 outer loop
			 vertex	1.68264895791577	0.8	-3.62886931211706
			 vertex	1.63124505213716	0.8	3.65226499310743
			 vertex	1.68264895791577	0.8	3.62886931211706
		 endloop
	 facet normal	0	1	0
		 outer loop
			 vertex	1.68264895791577	0.8	-3.62886931211706
			 vertex	1.68264895791577	0.8	3.62886931211706
			 vertex	1.73371741506593	0.8	-3.60475018894473
		 endloop
	 facet normal	0	1	0
		 outer loop
			 vertex	1.73371741506593	0.8	-3.60475018894473
			 vertex	1.68264895791577	0.8	3.62886931211706
			 vertex	1.73371741506593	0.8	3.60475018894474
		 endloop
	 facet normal	0	1	0
		 outer loop
			 vertex	1.73371741506593	0.8	-3.60475018894473
			 vertex	1.73371741506593	0.8	3.60475018894474
			 vertex	1.78444024270955	0.8	-3.57991243191767
		 endloop
	 facet normal	0	1	0
		 outer loop
			 vertex	1.78444024270955	0.8	-3.57991243191767
			 vertex	1.73371741506593	0.8	3.60475018894474
			 vertex	1.78444024270955	0.8	3.57991243191767
		 endloop
	 facet normal	0	1	0
		 outer loop
			 vertex	1.78444024270955	0.8	-3.57991243191767
			 vertex	1.78444024270955	0.8	3.57991243191767
			 vertex	1.83480732887236	0.8	-3.55436099262811
		 endloop
	 facet normal	0	1	0
		 outer loop
			 vertex	1.83480732887236	0.8	-3.55436099262811
			 vertex	1.78444024270955	0.8	3.57991243191767
			 vertex	1.83480732887236	0.8	3.55436099262811
		 endloop
	 facet normal	0	1	0
		 outer loop
			 vertex	1.83480732887236	0.8	-3.55436099262811
			 vertex	1.83480732887236	0.8	3.55436099262811
			 vertex	1.88480863249981	0.8	-3.52810096494618
		 endloop
	 facet normal	0	1	0
		 outer loop
			 vertex	1.88480863249981	0.8	-3.52810096494618
			 vertex	1.83480732887236	0.8	3.55436099262811
			 vertex	1.88480863249981	0.8	3.52810096494618
		 endloop
	 facet normal	0	1	0
		 outer loop
			 vertex	1.88480863249981	0.8	-3.52810096494618
			 vertex	1.88480863249981	0.8	3.52810096494618
			 vertex	1.93443418545883	0.8	-3.50113758400441
		 endloop
	 facet normal	0	1	0
		 outer loop
			 vertex	1.93443418545883	0.8	-3.50113758400441
			 vertex	1.88480863249981	0.8	3.52810096494618
			 vertex	1.93443418545883	0.8	3.50113758400441
		 endloop
	 facet normal	0	1	0
		 outer loop
			 vertex	1.93443418545883	0.8	-3.50113758400441
			 vertex	1.93443418545883	0.8	3.50113758400441
			 vertex	1.98367409452506	0.8	-3.47347622515402
		 endloop
	 facet normal	0	1	0
		 outer loop
			 vertex	1.98367409452506	0.8	-3.47347622515402
			 vertex	1.93443418545883	0.8	3.50113758400441
			 vertex	1.98367409452506	0.8	3.47347622515402
		 endloop
	 facet normal	0	1	0
		 outer loop
			 vertex	1.98367409452506	0.8	-3.47347622515402
			 vertex	1.98367409452506	0.8	3.47347622515402
			 vertex	2.0325185433551	0.8	-3.44512240289335
		 endloop
	 facet normal	0	1	0
		 outer loop
			 vertex	2.0325185433551	0.8	-3.44512240289335
			 vertex	1.98367409452506	0.8	3.47347622515402
			 vertex	2.0325185433551	0.8	3.44512240289335
		 endloop
	 facet normal	0	1	0
		 outer loop
			 vertex	2.0325185433551	0.8	-3.44512240289335
			 vertex	2.0325185433551	0.8	3.44512240289335
			 vertex	2.08095779444353	0.8	-3.41608176976851
		 endloop
	 facet normal	0	1	0
		 outer loop
			 vertex	2.08095779444353	0.8	-3.41608176976851
			 vertex	2.0325185433551	0.8	3.44512240289335
			 vertex	2.08095779444353	0.8	3.41608176976851
		 endloop
	 facet normal	0	1	0
		 outer loop
			 vertex	2.08095779444353	0.8	-3.41608176976851
			 vertex	2.08095779444353	0.8	3.41608176976851
			 vertex	2.12898219106411	0.8	-3.38636011524644
		 endloop
	 facet normal	0	1	0
		 outer loop
			 vertex	2.12898219106411	0.8	-3.38636011524644
			 vertex	2.08095779444353	0.8	3.41608176976851
			 vertex	2.12898219106411	0.8	3.38636011524644
		 endloop
	 facet normal	0	1	0
		 outer loop
			 vertex	2.12898219106411	0.8	-3.38636011524644
			 vertex	2.12898219106411	0.8	3.38636011524644
			 vertex	2.17658215919494	0.8	-3.35596336456081
		 endloop
	 facet normal	0	1	0
		 outer loop
			 vertex	2.17658215919494	0.8	-3.35596336456081
			 vertex	2.12898219106411	0.8	3.38636011524644
			 vertex	2.17658215919494	0.8	3.35596336456081
		 endloop
	 facet normal	0	1	0
		 outer loop
			 vertex	2.17658215919494	0.8	-3.35596336456081
			 vertex	2.17658215919494	0.8	3.35596336456081
			 vertex	2.22374820942709	0.8	-3.32489757753074
		 endloop
	 facet normal	0	1	0
		 outer loop
			 vertex	2.22374820942709	0.8	-3.32489757753074
			 vertex	2.17658215919494	0.8	3.35596336456081
			 vertex	2.22374820942709	0.8	3.32489757753074
		 endloop
	 facet normal	0	1	0
		 outer loop
			 vertex	2.22374820942709	0.8	-3.32489757753074
			 vertex	2.22374820942709	0.8	3.32489757753074
			 vertex	2.27047093885644	0.8	-3.29316894735274
		 endloop
	 facet normal	0	1	0
		 outer loop
			 vertex	2.27047093885644	0.8	-3.29316894735274
			 vertex	2.22374820942709	0.8	3.32489757753074
			 vertex	2.27047093885644	0.8	3.29316894735274
		 endloop
	 facet normal	0	1	0
		 outer loop
			 vertex	2.27047093885644	0.8	-3.29316894735274
			 vertex	2.27047093885644	0.8	3.29316894735274
			 vertex	2.31674103295813	0.8	-3.26078379936605
		 endloop
	 facet normal	0	1	0
		 outer loop
			 vertex	2.31674103295813	0.8	-3.26078379936605
			 vertex	2.27047093885644	0.8	3.29316894735274
			 vertex	2.31674103295813	0.8	3.26078379936605
		 endloop
	 facet normal	0	1	0
		 outer loop
			 vertex	2.31674103295813	0.8	-3.26078379936605
			 vertex	2.31674103295813	0.8	3.26078379936605
			 vertex	2.36254926744358	0.8	-3.22774858979162
		 endloop
	 facet normal	0	1	0
		 outer loop
			 vertex	2.36254926744358	0.8	-3.22774858979162
			 vertex	2.31674103295813	0.8	3.26078379936605
			 vertex	2.36254926744358	0.8	3.22774858979162
		 endloop
	 facet normal	0	1	0
		 outer loop
			 vertex	2.36254926744358	0.8	-3.22774858979162
			 vertex	2.36254926744358	0.8	3.22774858979162
			 vertex	2.40788651009934	0.8	-3.19406990444505
		 endloop
	 facet normal	0	1	0
		 outer loop
			 vertex	2.40788651009934	0.8	-3.19406990444505
			 vertex	2.36254926744358	0.8	3.22774858979162
			 vertex	2.40788651009933	0.8	3.19406990444506
		 endloop
	 facet normal	0	1	0
		 outer loop
			 vertex	2.40788651009934	0.8	-3.19406990444505
			 vertex	2.40788651009933	0.8	3.19406990444506
			 vertex	2.4527437226077	0.8	-3.15975445742364
		 endloop
	 facet normal	0	1	0
		 outer loop
			 vertex	2.4527437226077	0.8	-3.15975445742364
			 vertex	2.40788651009933	0.8	3.19406990444506
			 vertex	2.4527437226077	0.8	3.15975445742364
		 endloop
	 facet normal	0	1	0
		 outer loop
			 vertex	2.4527437226077	0.8	-3.15975445742364
			 vertex	2.4527437226077	0.8	3.15975445742364
			 vertex	2.49711196234855	0.8	-3.12480908976785
		 endloop
	 facet normal	0	1	0
		 outer loop
			 vertex	2.49711196234855	0.8	-3.12480908976785
			 vertex	2.4527437226077	0.8	3.15975445742364
			 vertex	2.49711196234855	0.8	3.12480908976785
		 endloop
	 facet normal	0	1	0
		 outer loop
			 vertex	2.49711196234855	0.8	-3.12480908976785
			 vertex	2.49711196234855	0.8	3.12480908976785
			 vertex	2.54098238418215	0.8	-3.08924076809756
		 endloop
	 facet normal	0	1	0
		 outer loop
			 vertex	2.54098238418215	0.8	-3.08924076809756
			 vertex	2.49711196234855	0.8	3.12480908976785
			 vertex	2.54098238418216	0.8	3.08924076809755
		 endloop
	 facet normal	0	1	0
		 outer loop
			 vertex	2.54098238418215	0.8	-3.08924076809756
			 vertex	2.54098238418216	0.8	3.08924076809755
			 vertex	2.58434624221249	0.8	-3.05305658322315
		 endloop
	 facet normal	0	1	0
		 outer loop
			 vertex	2.58434624221249	0.8	-3.05305658322315
			 vertex	2.54098238418216	0.8	3.08924076809755
			 vertex	2.58434624221249	0.8	3.05305658322315
		 endloop
	 facet normal	0	1	0
		 outer loop
			 vertex	2.58434624221249	0.8	-3.05305658322315
			 vertex	2.58434624221249	0.8	3.05305658322315
			 vertex	2.62719489153079	0.8	-3.01626374873195
		 endloop
	 facet normal	0	1	0
		 outer loop
			 vertex	2.62719489153079	0.8	-3.01626374873195
			 vertex	2.58434624221249	0.8	3.05305658322315
			 vertex	2.62719489153079	0.8	3.01626374873195
		 endloop
	 facet normal	0	1	0
		 outer loop
			 vertex	2.62719489153079	0.8	-3.01626374873195
			 vertex	2.62719489153079	0.8	3.01626374873195
			 vertex	2.66951978993902	0.8	-2.97886959955012
		 endloop
	 facet normal	0	1	0
		 outer loop
			 vertex	2.66951978993902	0.8	-2.97886959955012
			 vertex	2.62719489153079	0.8	3.01626374873195
			 vertex	2.66951978993902	0.8	2.97886959955012
		 endloop
	 facet normal	0	1	0
		 outer loop
			 vertex	2.66951978993902	0.8	-2.97886959955012
			 vertex	2.66951978993902	0.8	2.97886959955012
			 vertex	2.71131249965279	0.8	-2.9408815904804
		 endloop
	 facet normal	0	1	0
		 outer loop
			 vertex	2.71131249965279	0.8	-2.9408815904804
			 vertex	2.66951978993902	0.8	2.97886959955012
			 vertex	2.71131249965279	0.8	2.9408815904804
		 endloop
	 facet normal	0	1	0
		 outer loop
			 vertex	2.71131249965279	0.8	-2.9408815904804
			 vertex	2.71131249965279	0.8	2.9408815904804
			 vertex	2.75256468898348	0.8	-2.90230729471593
		 endloop
	 facet normal	0	1	0
		 outer loop
			 vertex	2.75256468898348	0.8	-2.90230729471593
			 vertex	2.71131249965279	0.8	2.9408815904804
			 vertex	2.75256468898348	0.8	2.90230729471593
		 endloop
	 facet normal	0	1	0
		 outer loop
			 vertex	2.75256468898348	0.8	-2.90230729471593
			 vertex	2.75256468898348	0.8	2.90230729471593
			 vertex	2.79326813399925	0.8	-2.86315440233047
		 endloop
	 facet normal	0	1	0
		 outer loop
			 vertex	2.79326813399925	0.8	-2.86315440233047
			 vertex	2.75256468898348	0.8	2.90230729471593
			 vertex	2.79326813399925	0.8	2.86315440233047
		 endloop
	 facet normal	0	1	0
		 outer loop
			 vertex	2.79326813399925	0.8	-2.86315440233047
			 vertex	2.79326813399925	0.8	2.86315440233047
			 vertex	2.83341472016456	0.8	-2.82343071874534
		 endloop
	 facet normal	0	1	0
		 outer loop
			 vertex	2.83341472016456	0.8	-2.82343071874534
			 vertex	2.79326813399925	0.8	2.86315440233047
			 vertex	2.83341472016456	0.8	2.82343071874534
		 endloop
	 facet normal	0	1	0
		 outer loop
			 vertex	2.83341472016456	0.8	-2.82343071874534
			 vertex	2.83341472016456	0.8	2.82343071874534
			 vertex	2.8729964439578	0.8	-2.78314416317334
		 endloop
	 facet normal	0	1	0
		 outer loop
			 vertex	2.8729964439578	0.8	-2.78314416317334
			 vertex	2.83341472016456	0.8	2.82343071874534
			 vertex	2.8729964439578	0.8	2.78314416317334
		 endloop
	 facet normal	0	1	0
		 outer loop
			 vertex	2.8729964439578	0.8	-2.78314416317334
			 vertex	2.8729964439578	0.8	2.78314416317334
			 vertex	2.91200541446692	0.8	-2.74230276704002
		 endloop
	 facet normal	0	1	0
		 outer loop
			 vertex	2.91200541446692	0.8	-2.74230276704002
			 vertex	2.8729964439578	0.8	2.78314416317334
			 vertex	2.91200541446692	0.8	2.74230276704002
		 endloop
	 facet normal	0	1	0
		 outer loop
			 vertex	2.91200541446692	0.8	-2.74230276704002
			 vertex	2.91200541446692	0.8	2.74230276704002
			 vertex	2.95043385496249	0.8	-2.70091467238252
		 endloop
	 facet normal	0	1	0
		 outer loop
			 vertex	2.95043385496249	0.8	-2.70091467238252
			 vertex	2.91200541446692	0.8	2.74230276704002
			 vertex	2.95043385496249	0.8	2.70091467238252
		 endloop
	 facet normal	0	1	0
		 outer loop
			 vertex	2.95043385496249	0.8	-2.70091467238252
			 vertex	2.95043385496249	0.8	2.70091467238252
			 vertex	2.98827410444809	0.8	-2.65898813022642
		 endloop
	 facet normal	0	1	0
		 outer loop
			 vertex	2.98827410444809	0.8	-2.65898813022642
			 vertex	2.95043385496249	0.8	2.70091467238252
			 vertex	2.98827410444809	0.8	2.65898813022642
		 endloop
	 facet normal	0	1	0
		 outer loop
			 vertex	2.98827410444809	0.8	-2.65898813022642
			 vertex	2.98827410444809	0.8	2.65898813022642
			 vertex	3.02551861918755	0.8	-2.61653149894081
		 endloop
	 facet normal	0	1	0
		 outer loop
			 vertex	3.02551861918755	0.8	-2.61653149894081
			 vertex	2.98827410444809	0.8	2.65898813022642
			 vertex	3.02551861918755	0.8	2.61653149894081
		 endloop
	 facet normal	0	1	0
		 outer loop
			 vertex	3.02551861918755	0.8	-2.61653149894081
			 vertex	3.02551861918755	0.8	2.61653149894081
			 vertex	3.06215997420889	0.8	-2.57355324257203
		 endloop
	 facet normal	0	1	0
		 outer loop
			 vertex	3.06215997420889	0.8	-2.57355324257203
			 vertex	3.02551861918755	0.8	2.61653149894081
			 vertex	3.06215997420889	0.8	2.57355324257203
		 endloop
	 facet normal	0	1	0
		 outer loop
			 vertex	3.06215997420889	0.8	-2.57355324257203
			 vertex	3.06215997420889	0.8	2.57355324257203
			 vertex	3.09819086478449	0.8	-2.53006192915627
		 endloop
	 facet normal	0	1	0
		 outer loop
			 vertex	3.09819086478449	0.8	-2.53006192915627
			 vertex	3.06215997420889	0.8	2.57355324257203
			 vertex	3.09819086478449	0.8	2.53006192915627
		 endloop
	 facet normal	0	1	0
		 outer loop
			 vertex	3.09819086478449	0.8	-2.53006192915627
			 vertex	3.09819086478449	0.8	2.53006192915627
			 vertex	3.13360410788741	0.8	-2.48606622901144
		 endloop
	 facet normal	0	1	0
		 outer loop
			 vertex	3.13360410788741	0.8	-2.48606622901144
			 vertex	3.09819086478449	0.8	2.53006192915627
			 vertex	3.13360410788741	0.8	2.48606622901144
		 endloop
	 facet normal	0	1	0
		 outer loop
			 vertex	3.13360410788741	0.8	-2.48606622901144
			 vertex	3.13360410788741	0.8	2.48606622901144
			 vertex	3.16839264362332	0.8	-2.44157491300874
		 endloop
	 facet normal	0	1	0
		 outer loop
			 vertex	3.16839264362332	0.8	-2.44157491300874
			 vertex	3.13360410788741	0.8	2.48606622901144
			 vertex	3.16839264362332	0.8	2.44157491300874
		 endloop
	 facet normal	0	1	0
		 outer loop
			 vertex	3.16839264362332	0.8	-2.44157491300874
			 vertex	3.16839264362332	0.8	2.44157491300874
			 vertex	3.20254953663796	0.8	-2.3965968508241
		 endloop
	 facet normal	0	1	0
		 outer loop
			 vertex	3.20254953663796	0.8	-2.3965968508241
			 vertex	3.16839264362332	0.8	2.44157491300874
			 vertex	3.20254953663796	0.8	2.3965968508241
		 endloop
	 facet normal	0	1	0
		 outer loop
			 vertex	3.20254953663796	0.8	-2.3965968508241
			 vertex	3.20254953663796	0.8	2.3965968508241
			 vertex	3.23606797749979	0.8	-2.35114100916989
		 endloop
	 facet normal	0	1	0
		 outer loop
			 vertex	3.23606797749979	0.8	-2.35114100916989
			 vertex	3.20254953663796	0.8	2.3965968508241
			 vertex	3.23606797749979	0.8	2.35114100916989
		 endloop
	 facet normal	0	1	0
		 outer loop
			 vertex	3.23606797749979	0.8	-2.35114100916989
			 vertex	3.23606797749979	0.8	2.35114100916989
			 vertex	3.26894128405745	0.8	-2.30521645000743
		 endloop
	 facet normal	0	1	0
		 outer loop
			 vertex	3.26894128405745	0.8	-2.30521645000743
			 vertex	3.23606797749979	0.8	2.35114100916989
			 vertex	3.26894128405745	0.8	2.30521645000743
		 endloop
	 facet normal	0	1	0
		 outer loop
			 vertex	3.26894128405745	0.8	-2.30521645000743
			 vertex	3.26894128405745	0.8	2.30521645000743
			 vertex	3.30116290277191	0.8	-2.25883232874035
		 endloop
	 facet normal	0	1	0
		 outer loop
			 vertex	3.30116290277191	0.8	-2.25883232874035
			 vertex	3.26894128405745	0.8	2.30521645000743
			 vertex	3.30116290277191	0.8	2.25883232874035
		 endloop
	 facet normal	0	1	0
		 outer loop
			 vertex	3.30116290277191	0.8	-2.25883232874035
			 vertex	3.30116290277191	0.8	2.25883232874035
			 vertex	3.332726410023	0.8	-2.21199789238941
		 endloop
	 facet normal	0	1	0
		 outer loop
			 vertex	3.332726410023	0.8	-2.21199789238941
			 vertex	3.30116290277191	0.8	2.25883232874035
			 vertex	3.332726410023	0.8	2.21199789238941
		 endloop
	 facet normal	0	1	0
		 outer loop
			 vertex	3.332726410023	0.8	-2.21199789238941
			 vertex	3.332726410023	0.8	2.21199789238941
			 vertex	3.36362551338998	0.8	-2.16472247774906
		 endloop
	 facet normal	0	1	0
		 outer loop
			 vertex	3.36362551338998	0.8	-2.16472247774906
			 vertex	3.332726410023	0.8	2.21199789238941
			 vertex	3.36362551338998	0.8	2.16472247774906
		 endloop
	 facet normal	0	1	0
		 outer loop
			 vertex	3.36362551338998	0.8	-2.16472247774906
			 vertex	3.36362551338998	0.8	2.16472247774906
			 vertex	3.39385405290595	0.8	-2.11701550952605
		 endloop
	 facet normal	0	1	0
		 outer loop
			 vertex	3.39385405290595	0.8	-2.11701550952605
			 vertex	3.36362551338998	0.8	2.16472247774906
			 vertex	3.39385405290595	0.8	2.11701550952605
		 endloop
	 facet normal	0	1	0
		 outer loop
			 vertex	3.39385405290595	0.8	-2.11701550952605
			 vertex	3.39385405290595	0.8	2.11701550952605
			 vertex	3.42340600228596	0.8	-2.06888649846057
		 endloop
	 facet normal	0	1	0
		 outer loop
			 vertex	3.42340600228596	0.8	-2.06888649846057
			 vertex	3.39385405290595	0.8	2.11701550952605
			 vertex	3.42340600228596	0.8	2.06888649846057
		 endloop
	 facet normal	0	1	0
		 outer loop
			 vertex	3.42340600228596	0.8	-2.06888649846057
			 vertex	3.42340600228596	0.8	2.06888649846057
			 vertex	3.45227547012834	0.8	-2.02034503943019
		 endloop
	 facet normal	0	1	0
		 outer loop
			 vertex	3.45227547012834	0.8	-2.02034503943019
			 vertex	3.42340600228596	0.8	2.06888649846057
			 vertex	3.45227547012834	0.8	2.02034503943019
		 endloop
	 facet normal	0	1	0
		 outer loop
			 vertex	3.45227547012834	0.8	-2.02034503943019
			 vertex	3.45227547012834	0.8	2.02034503943019
			 vertex	3.48045670108919	0.8	-1.97140080953706
		 endloop
	 facet normal	0	1	0
		 outer loop
			 vertex	3.48045670108919	0.8	-1.97140080953706
			 vertex	3.45227547012834	0.8	2.02034503943019
			 vertex	3.48045670108919	0.8	1.97140080953706
		 endloop
	 facet normal	0	1	0
		 outer loop
			 vertex	3.48045670108919	0.8	-1.97140080953706
			 vertex	3.48045670108919	0.8	1.97140080953706
			 vertex	3.50794407702978	0.8	-1.92206356617872
		 endloop
	 facet normal	0	1	0
		 outer loop
			 vertex	3.50794407702978	0.8	-1.92206356617872
			 vertex	3.48045670108919	0.8	1.97140080953706
			 vertex	3.50794407702978	0.8	1.92206356617872
		 endloop
	 facet normal	0	1	0
		 outer loop
			 vertex	3.50794407702978	0.8	-1.92206356617872
			 vertex	3.50794407702978	0.8	1.92206356617872
			 vertex	3.53473211813658	0.8	-1.87234314510286
		 endloop
	 facet normal	0	1	0
		 outer loop
			 vertex	3.53473211813658	0.8	-1.87234314510286
			 vertex	3.50794407702978	0.8	1.92206356617872
			 vertex	3.53473211813658	0.8	1.87234314510286
		 endloop
	 facet normal	0	1	0
		 outer loop
			 vertex	3.53473211813658	0.8	-1.87234314510286
			 vertex	3.53473211813658	0.8	1.87234314510286
			 vertex	3.56081548401365	0.8	-1.82224945844653
		 endloop
	 facet normal	0	1	0
		 outer loop
			 vertex	3.56081548401365	0.8	-1.82224945844653
			 vertex	3.53473211813658	0.8	1.87234314510286
			 vertex	3.56081548401365	0.8	1.82224945844653
		 endloop
	 facet normal	0	1	0
		 outer loop
			 vertex	3.56081548401365	0.8	-1.82224945844653
			 vertex	3.56081548401365	0.8	1.82224945844653
			 vertex	3.58618897474731	0.8	-1.77179249276003
		 endloop
	 facet normal	0	1	0
		 outer loop
			 vertex	3.58618897474731	0.8	-1.77179249276003
			 vertex	3.56081548401365	0.8	1.82224945844653
			 vertex	3.58618897474731	0.8	1.77179249276003
		 endloop
	 facet normal	0	1	0
		 outer loop
			 vertex	3.58618897474731	0.8	-1.77179249276003
			 vertex	3.58618897474731	0.8	1.77179249276003
			 vertex	3.61084753194283	0.8	-1.72098230701608
		 endloop
	 facet normal	0	1	0
		 outer loop
			 vertex	3.61084753194283	0.8	-1.72098230701608
			 vertex	3.58618897474731	0.8	1.77179249276003
			 vertex	3.61084753194283	0.8	1.72098230701608
		 endloop
	 facet normal	0	1	0
		 outer loop
			 vertex	3.61084753194283	0.8	-1.72098230701608
			 vertex	3.61084753194283	0.8	1.72098230701608
			 vertex	3.63478623973277	0.8	-1.66982903060442
		 endloop
	 facet normal	0	1	0
		 outer loop
			 vertex	3.63478623973277	0.8	-1.66982903060442
			 vertex	3.61084753194283	0.8	1.72098230701608
			 vertex	3.63478623973277	0.8	1.66982903060442
		 endloop
	 facet normal	0	1	0
		 outer loop
			 vertex	3.63478623973277	0.8	-1.66982903060442
			 vertex	3.63478623973277	0.8	1.66982903060442
			 vertex	3.65800032575708	0.8	-1.6183428613125
		 endloop
	 facet normal	0	1	0
		 outer loop
			 vertex	3.65800032575708	0.8	-1.6183428613125
			 vertex	3.63478623973277	0.8	1.66982903060442
			 vertex	3.65800032575708	0.8	1.6183428613125
		 endloop
	 facet normal	0	1	0
		 outer loop
			 vertex	3.65800032575708	0.8	-1.6183428613125
			 vertex	3.65800032575708	0.8	1.6183428613125
			 vertex	3.68048516211443	0.8	-1.56653406329244
		 endloop
	 facet normal	0	1	0
		 outer loop
			 vertex	3.68048516211443	0.8	-1.56653406329244
			 vertex	3.65800032575708	0.8	1.6183428613125
			 vertex	3.68048516211443	0.8	1.56653406329244
		 endloop
	 facet normal	0	1	0
		 outer loop
			 vertex	3.68048516211443	0.8	-1.56653406329244
			 vertex	3.68048516211443	0.8	1.56653406329244
			 vertex	3.70223626628488	0.8	-1.51441296501481
		 endloop
	 facet normal	0	1	0
		 outer loop
			 vertex	3.70223626628488	0.8	-1.51441296501481
			 vertex	3.68048516211443	0.8	1.56653406329244
			 vertex	3.70223626628488	0.8	1.51441296501481
		 endloop
	 facet normal	0	1	0
		 outer loop
			 vertex	3.70223626628488	0.8	-1.51441296501481
			 vertex	3.70223626628488	0.8	1.51441296501481
			 vertex	3.72324930202348	0.8	-1.46198995720957
		 endloop
	 facet normal	0	1	0
		 outer loop
			 vertex	3.72324930202348	0.8	-1.46198995720957
			 vertex	3.70223626628488	0.8	1.51441296501481
			 vertex	3.72324930202348	0.8	1.46198995720957
		 endloop
	 facet normal	0	1	0
		 outer loop
			 vertex	3.72324930202348	0.8	-1.46198995720957
			 vertex	3.72324930202348	0.8	1.46198995720957
			 vertex	3.74352008022472	0.8	-1.40927549079459
		 endloop
	 facet normal	0	1	0
		 outer loop
			 vertex	3.74352008022472	0.8	-1.40927549079459
			 vertex	3.72324930202348	0.8	1.46198995720957
			 vertex	3.74352008022472	0.8	1.40927549079459
		 endloop
	 facet normal	0	1	0
		 outer loop
			 vertex	3.74352008022472	0.8	-1.40927549079459
			 vertex	3.74352008022472	0.8	1.40927549079459
			 vertex	3.76304455975766	0.8	-1.35628007479219
		 endloop
	 facet normal	0	1	0
		 outer loop
			 vertex	3.76304455975766	0.8	-1.35628007479219
			 vertex	3.74352008022472	0.8	1.40927549079459
			 vertex	3.76304455975766	0.8	1.35628007479219
		 endloop
	 facet normal	0	1	0
		 outer loop
			 vertex	3.76304455975766	0.8	-1.35628007479219
			 vertex	3.76304455975766	0.8	1.35628007479219
			 vertex	3.78181884827159	0.8	-1.30301427423408
		 endloop
	 facet normal	0	1	0
		 outer loop
			 vertex	3.78181884827159	0.8	-1.30301427423408
			 vertex	3.76304455975766	0.8	1.35628007479219
			 vertex	3.78181884827159	0.8	1.30301427423408
		 endloop
	 facet normal	0	1	0
		 outer loop
			 vertex	3.78181884827159	0.8	-1.30301427423408
			 vertex	3.78181884827159	0.8	1.30301427423408
			 vertex	3.79983920297196	0.8	-1.24948870805518
		 endloop
	 facet normal	0	1	0
		 outer loop
			 vertex	3.79983920297196	0.8	-1.24948870805518
			 vertex	3.78181884827159	0.8	1.30301427423408
			 vertex	3.79983920297196	0.8	1.24948870805518
		 endloop
	 facet normal	0	1	0
		 outer loop
			 vertex	3.79983920297196	0.8	-1.24948870805518
			 vertex	3.79983920297196	0.8	1.24948870805518
			 vertex	3.81710203136658	0.8	-1.19571404697658
		 endloop
	 facet normal	0	1	0
		 outer loop
			 vertex	3.81710203136658	0.8	-1.19571404697658
			 vertex	3.79983920297196	0.8	1.24948870805518
			 vertex	3.81710203136658	0.8	1.19571404697658
		 endloop
	 facet normal	0	1	0
		 outer loop
			 vertex	3.81710203136658	0.8	-1.19571404697658
			 vertex	3.81710203136658	0.8	1.19571404697658
			 vertex	3.83360389198176	0.8	-1.14170101137834
		 endloop
	 facet normal	0	1	0
		 outer loop
			 vertex	3.83360389198176	0.8	-1.14170101137834
			 vertex	3.81710203136658	0.8	1.19571404697658
			 vertex	3.83360389198176	0.8	1.14170101137834
		 endloop
	 facet normal	0	1	0
		 outer loop
			 vertex	3.83360389198176	0.8	-1.14170101137834
			 vertex	3.83360389198176	0.8	1.14170101137834
			 vertex	3.84934149504841	0.8	-1.08746036916222
		 endloop
	 facet normal	0	1	0
		 outer loop
			 vertex	3.84934149504841	0.8	-1.08746036916222
			 vertex	3.83360389198176	0.8	1.14170101137834
			 vertex	3.84934149504841	0.8	1.08746036916222
		 endloop
	 facet normal	0	1	0
		 outer loop
			 vertex	3.84934149504841	0.8	-1.08746036916222
			 vertex	3.84934149504841	0.8	1.08746036916222
			 vertex	3.86431170315792	0.8	-1.0330029336051
		 endloop
	 facet normal	0	1	0
		 outer loop
			 vertex	3.86431170315792	0.8	-1.0330029336051
			 vertex	3.84934149504841	0.8	1.08746036916222
			 vertex	3.86431170315792	0.8	1.0330029336051
		 endloop
	 facet normal	0	1	0
		 outer loop
			 vertex	3.86431170315792	0.8	-1.0330029336051
			 vertex	3.86431170315792	0.8	1.0330029336051
			 vertex	3.87851153188755	0.8	-0.9783395612032
		 endloop
	 facet normal	0	1	0
		 outer loop
			 vertex	3.87851153188755	0.8	-0.9783395612032
			 vertex	3.86431170315792	0.8	1.0330029336051
			 vertex	3.87851153188755	0.8	0.978339561203199
		 endloop
	 facet normal	0	1	0
		 outer loop
			 vertex	3.87851153188755	0.8	-0.9783395612032
			 vertex	3.87851153188755	0.8	0.978339561203199
			 vertex	3.89193815039548	0.8	-0.923481149507794
		 endloop
	 facet normal	0	1	0
		 outer loop
			 vertex	3.89193815039548	0.8	-0.923481149507794
			 vertex	3.87851153188755	0.8	0.978339561203199
			 vertex	3.89193815039548	0.8	0.923481149507794
		 endloop
	 facet normal	0	1	0
		 outer loop
			 vertex	3.89193815039548	0.8	-0.923481149507794
			 vertex	3.89193815039548	0.8	0.923481149507794
			 vertex	3.90458888198508	0.8	-0.868438634952699
		 endloop
	 facet normal	0	1	0
		 outer loop
			 vertex	3.90458888198508	0.8	-0.868438634952699
			 vertex	3.89193815039548	0.8	0.923481149507794
			 vertex	3.90458888198508	0.8	0.868438634952699
		 endloop
	 facet normal	0	1	0
		 outer loop
			 vertex	3.90458888198508	0.8	-0.868438634952699
			 vertex	3.90458888198508	0.8	0.868438634952699
			 vertex	3.9164612046386	0.8	-0.81322299067401
		 endloop
	 facet normal	0	1	0
		 outer loop
			 vertex	3.9164612046386	0.8	-0.81322299067401
			 vertex	3.90458888198508	0.8	0.868438634952699
			 vertex	3.9164612046386	0.8	0.81322299067401
		 endloop
	 facet normal	0	1	0
		 outer loop
			 vertex	3.9164612046386	0.8	-0.81322299067401
			 vertex	3.9164612046386	0.8	0.81322299067401
			 vertex	3.9275527515199	0.8	-0.757845224322525
		 endloop
	 facet normal	0	1	0
		 outer loop
			 vertex	3.9275527515199	0.8	-0.757845224322525
			 vertex	3.9164612046386	0.8	0.81322299067401
			 vertex	3.9275527515199	0.8	0.757845224322525
		 endloop
	 facet normal	0	1	0
		 outer loop
			 vertex	3.9275527515199	0.8	-0.757845224322525
			 vertex	3.9275527515199	0.8	0.757845224322525
			 vertex	3.93786131144633	0.8	-0.702316375869283
		 endloop
	 facet normal	0	1	0
		 outer loop
			 vertex	3.93786131144633	0.8	-0.702316375869283
			 vertex	3.9275527515199	0.8	0.757845224322525
			 vertex	3.93786131144633	0.8	0.702316375869283
		 endloop
	 facet normal	0	1	0
		 outer loop
			 vertex	3.93786131144633	0.8	-0.702316375869283
			 vertex	3.93786131144633	0.8	0.702316375869283
			 vertex	3.94738482932954	0.8	-0.646647515404672
		 endloop
	 facet normal	0	1	0
		 outer loop
			 vertex	3.94738482932954	0.8	-0.646647515404672
			 vertex	3.93786131144633	0.8	0.702316375869283
			 vertex	3.94738482932954	0.8	0.646647515404672
		 endloop
	 facet normal	0	1	0
		 outer loop
			 vertex	3.94738482932954	0.8	-0.646647515404672
			 vertex	3.94738482932954	0.8	0.646647515404672
			 vertex	3.95612140658514	0.8	-0.59084974093152
		 endloop
	 facet normal	0	1	0
		 outer loop
			 vertex	3.95612140658514	0.8	-0.59084974093152
			 vertex	3.94738482932954	0.8	0.646647515404672
			 vertex	3.95612140658514	0.8	0.590849740931518
		 endloop
	 facet normal	0	1	0
		 outer loop
			 vertex	3.95612140658514	0.8	-0.59084974093152
			 vertex	3.95612140658514	0.8	0.590849740931518
			 vertex	3.96406930151125	0.8	-0.53493417615262
		 endloop
	 facet normal	0	1	0
		 outer loop
			 vertex	3.96406930151125	0.8	-0.53493417615262
			 vertex	3.95612140658514	0.8	0.590849740931518
			 vertex	3.96406930151125	0.8	0.53493417615262
		 endloop
	 facet normal	0	1	0
		 outer loop
			 vertex	3.96406930151125	0.8	-0.53493417615262
			 vertex	3.96406930151125	0.8	0.53493417615262
			 vertex	3.97122692963571	0.8	-0.478911968253145
		 endloop
	 facet normal	0	1	0
		 outer loop
			 vertex	3.97122692963571	0.8	-0.478911968253145
			 vertex	3.96406930151125	0.8	0.53493417615262
			 vertex	3.97122692963571	0.8	0.478911968253145
		 endloop
	 facet normal	0	1	0
		 outer loop
			 vertex	3.97122692963571	0.8	-0.478911968253145
			 vertex	3.97122692963571	0.8	0.478911968253145
			 vertex	3.97759286403193	0.8	-0.422794285678371
		 endloop
	 facet normal	0	1	0
		 outer loop
			 vertex	3.97759286403193	0.8	-0.422794285678371
			 vertex	3.97122692963571	0.8	0.478911968253145
			 vertex	3.97759286403193	0.8	0.422794285678371
		 endloop
	 facet normal	0	1	0
		 outer loop
			 vertex	3.97759286403193	0.8	-0.422794285678371
			 vertex	3.97759286403193	0.8	0.422794285678371
			 vertex	3.98316583560336	0.8	-0.366592315907163
		 endloop
	 facet normal	0	1	0
		 outer loop
			 vertex	3.98316583560336	0.8	-0.366592315907163
			 vertex	3.97759286403193	0.8	0.422794285678371
			 vertex	3.98316583560336	0.8	0.366592315907163
		 endloop
	 facet normal	0	1	0
		 outer loop
			 vertex	3.98316583560336	0.8	-0.366592315907163
			 vertex	3.98316583560336	0.8	0.366592315907163
			 vertex	3.98794473333654	0.8	-0.310317263221663
		 endloop
	 facet normal	0	1	0
		 outer loop
			 vertex	3.98794473333654	0.8	-0.310317263221663
			 vertex	3.98316583560336	0.8	0.366592315907163
			 vertex	3.98794473333654	0.8	0.310317263221663
		 endloop
	 facet normal	0	1	0
		 outer loop
			 vertex	3.98794473333654	0.8	-0.310317263221663
			 vertex	3.98794473333654	0.8	0.310317263221663
			 vertex	3.99192860452252	0.8	-0.253980346473641
		 endloop
	 facet normal	0	1	0
		 outer loop
			 vertex	3.99192860452252	0.8	-0.253980346473641
			 vertex	3.98794473333654	0.8	0.310317263221663
			 vertex	3.99192860452252	0.8	0.253980346473641
		 endloop
	 facet normal	0	1	0
		 outer loop
			 vertex	3.99192860452252	0.8	-0.253980346473641
			 vertex	3.99192860452252	0.8	0.253980346473641
			 vertex	3.99511665494686	0.8	-0.197592796847934
		 endloop
	 facet normal	0	1	0
		 outer loop
			 vertex	3.99511665494686	0.8	-0.197592796847934
			 vertex	3.99192860452252	0.8	0.253980346473641
			 vertex	3.99511665494686	0.8	0.197592796847932
		 endloop
	 facet normal	0	1	0
		 outer loop
			 vertex	3.99511665494686	0.8	-0.197592796847934
			 vertex	3.99511665494686	0.8	0.197592796847932
			 vertex	3.99750824904791	0.8	-0.14116585562341
		 endloop
	 facet normal	0	1	0
		 outer loop
			 vertex	3.99750824904791	0.8	-0.14116585562341
			 vertex	3.99511665494686	0.8	0.197592796847932
			 vertex	3.99750824904791	0.8	0.14116585562341
		 endloop
	 facet normal	0	1	0
		 outer loop
			 vertex	3.99750824904791	0.8	-0.14116585562341
			 vertex	3.99750824904791	0.8	0.14116585562341
			 vertex	3.99910291004354	0.8	-0.0847107719319566
		 endloop
	 facet normal	0	1	0
		 outer loop
			 vertex	3.99910291004354	0.8	-0.0847107719319566
			 vertex	3.99750824904791	0.8	0.14116585562341
			 vertex	3.99910291004354	0.8	0.0847107719319566
		 endloop
	 facet normal	0	1	0
		 outer loop
			 vertex	3.99910291004354	0.8	-0.0847107719319566
			 vertex	3.99910291004354	0.8	0.0847107719319566
			 vertex	3.99990032002617	0.8	-0.0282388005158673
		 endloop
	 facet normal	0	1	0
		 outer loop
			 vertex	3.99990032002617	0.8	-0.0282388005158673
			 vertex	3.99910291004354	0.8	0.0847107719319566
			 vertex	3.99990032002617	0.8	0.0282388005158673
		 endloop
endsolid examplar
